<?xml version="1.0" encoding="utf-8"?>
<!-- Generator: Adobe Illustrator 19.0.0, SVG Export Plug-In . SVG Version: 6.00 Build 0)  -->
<svg version="1.1" id="Layer_1" xmlns="http://www.w3.org/2000/svg" xmlns:xlink="http://www.w3.org/1999/xlink" x="0px" y="0px"
	 viewBox="0 0 269.3 83.6" enable-background="new 0 0 269.3 83.6" xml:space="preserve">
<g>
	<path fill="#ADBCD2" d="M45.7,5c-0.1,0-0.1-0.1-0.2-0.1c-0.1-0.1-0.2-0.1-0.3-0.1c-0.1,0-0.1,0-0.1,0c0,0,0,0.1,0,0.1
		c0.1,0.1,0.2,0.2,0.3,0.2c0,0,0,0.1,0,0.1c0,0.1,0.1,0.1,0.1,0.1c-0.1,0-0.1,0-0.1,0c0,0,0,0-0.1,0c0,0-0.1,0.1-0.2,0.2
		c-0.1,0-0.1,0.1-0.1,0.1c0,0.1,0.1,0.1,0.3,0.1l0,0c0.1,0,0.2,0,0.3,0c0,0,0.2,0,0.2-0.1c0-0.1-0.1-0.1-0.2-0.2c0,0,0,0,0,0
		c0.1,0,0.2,0,0.2,0c0,0,0.1,0,0.1-0.1c0-0.1-0.1-0.1-0.3-0.2c0,0,0,0,0,0C45.9,5.1,45.8,5.1,45.7,5z"/>
	<path fill="#ADBCD2" d="M29.5,4.5c0,0-0.1,0.1-0.3,0.2c-0.2,0.1-0.3,0.2-0.3,0.3c0,0,0,0.1,0,0.1c0,0,0.1,0,0.1,0c0,0,0,0,0.1,0
		c0,0,0.1,0,0.1,0c0.1,0,0.1,0,0.2,0c0.1,0.1,0.2,0,0.3,0c0.1,0,0.1,0,0.2,0c0,0,0.1,0,0.1,0c-0.1,0-0.2,0.1-0.6,0.2
		c-0.1,0-0.2,0.1-0.3,0.1c-0.1,0-0.2,0.1-0.3,0.1c-0.1,0-0.2,0.1-0.3,0.1c0,0-0.1,0-0.1,0c-0.1,0-0.2,0.1-0.3,0.1l-0.1,0.1
		c0,0,0,0,0,0.1c0,0,0,0.1,0,0.1c0,0,0.1,0.1,0.2,0c0,0,0,0,0,0c0,0,0.1,0,0.1,0.1c0,0,0,0,0,0.1c0,0,0.1,0,0.1,0
		c0.2-0.1,0.3-0.2,0.4-0.2c0,0,0.1,0,0.1,0c0,0,0.1,0,0.1,0c0.1,0,0.2,0,0.2-0.1c0,0,0.2-0.1,0.4-0.2c0.1,0,0.6-0.1,0.7-0.2
		c0.1,0,0.3,0,0.3-0.1c0.1-0.1,0.4-0.2,0.6-0.2c0.2,0,0.4,0,0.5-0.2c0-0.1,0.3-0.1,0.5-0.1c0,0,0.4,0,0.6-0.2
		c0.1-0.1,0.3-0.1,0.4-0.1c0,0,0,0,0,0c0.1,0,0.5-0.1,0.6-0.2c0,0,0.1,0,0.1,0c0.1,0,0.2-0.1,0.3-0.1c0.1-0.1,0.4-0.1,0.6-0.1l0.1,0
		c0,0,0,0,0,0c0.4-0.2,0.4-0.2,0.7-0.1c0.2,0.1,0.5,0,0.7,0c0.1,0,0.2,0,0.2,0c0.1,0,0.1,0,0.2-0.1c0.1-0.1,0.3-0.2,0.5-0.1
		c0.1,0,0.2,0,0.4,0c0.3,0,0.9,0,1.1-0.2c0,0,0.1,0,0.3,0c0.1,0,0.3,0,0.4,0c0.1,0,0.3,0,0.4,0c0.1,0,0.3,0,0.3,0
		c0.1,0,0.5,0,0.8-0.1c0.7,0,1.2-0.1,1.4-0.2c0.3,0.2,1.1,0.5,1.1,0.5c0,0,0.8,0.2,1.4,0.2c0.3,0,0.6,0.1,0.9,0.1
		c0.2,0,0.4,0.1,0.5,0.1c-0.2,0-0.3,0-0.5,0c-0.4,0-0.6,0.1-0.6,0.2c0,0.1,0.1,0.2,0.1,0.2c0.1,0.1,0.1,0.1,0.2,0.2
		c0.1,0.1,0.2,0.2,0.3,0.2c0,0,0.1,0,0.1,0c0.1,0,0.3-0.1,0.4-0.1c0.3,0,0.5,0,0.6,0.1C47,5.1,47.6,5.2,48,5.3c0.1,0,0.2,0,0.2,0
		c0.1,0,0.2,0.1,0.4,0.1c0.2,0.1,0.4,0.1,0.6,0.1c0.3,0,0.9,0.2,1.2,0.3c0,0,0.1,0,0.1,0c0.2,0,0.4-0.1,0.5-0.2c0,0,0,0,0,0.1
		c0,0.2,0.1,0.3,0.5,0.4c0.4,0,0.5,0.1,0.5,0.2c0,0,0,0,0,0.1c0,0,0,0,0,0c0,0,0,0.1,0,0.1c0,0.1,0.1,0.1,0.6,0.1c0.1,0,0.3,0,0.4,0
		c0.1,0,0.2,0,0.3,0c0.1,0,0.2,0,0.2-0.1c0-0.1,0-0.1-0.1-0.2c-0.1-0.1-0.1-0.2-0.1-0.2c0,0,0.2,0,0.3,0c0.2,0.1,0.5,0.2,0.7,0.4
		c0.2,0.1,0.3,0.2,0.5,0.3c0.2,0.1,0.3,0.3,0.3,0.3c0,0-0.1,0-0.2,0C55,7,54.8,7,54.5,7c-0.3,0-0.6,0-0.7-0.2
		c-0.2-0.1-0.7-0.2-1.1-0.2c-0.1,0-0.2,0-0.2,0l-0.7-0.2c0,0,0,0-0.1,0c0,0,0,0,0,0.1C51.7,6.8,52,7,52.4,7c0.4,0,1.4,0.5,1.4,0.7
		c0.1,0.2,0.7,0.6,0.8,0.6c0,0,0.1,0.1,0.1,0.1c0.5,0,0.9,0,1.4,0c2.5,0,5,0.3,7.3,1C57,5,49.4,2.6,41.4,2.6
		C37.3,2.6,33.3,3.3,29.5,4.5C29.5,4.5,29.5,4.5,29.5,4.5z"/>
	<path fill="#ADBCD2" d="M54.3,8.3C54.1,8.1,53.9,8,53.7,8c-0.1,0-0.2,0-0.3,0.1c-0.2,0.1-0.5-0.1-0.8-0.2c-0.2-0.1-0.3-0.1-0.5-0.2
		c-0.3-0.1-1.6-0.6-1.8-0.8c-0.1,0-0.3-0.2-0.4-0.2c-0.1,0-0.1,0-0.1,0.1c0,0.1,0,0.1,0.1,0.2c0.1,0.2,0.7,0.4,1.2,0.7
		c0.3,0.2,0.6,0.3,0.8,0.4L52,8.2c0.3,0.2,0.4,0.3,0.6,0.2c0.1,0,0.3,0.1,0.5,0.2c0.4,0,0.8-0.1,1.3-0.1C54.4,8.4,54.3,8.3,54.3,8.3
		z"/>
	<path fill="#B4B4B4" stroke="#B4B4B4" stroke-miterlimit="10" d="M81.3,40.3c0,0.2,0,0.5,0,0.7c0,0.1,0,0.3,0,0.4
		c0,0.2,0,0.4,0,0.5c0,0.2,0,0.3-0.1,0.5c0,0.2,0,0.3-0.1,0.5c0,0.2,0,0.3-0.1,0.5c0,0.2-0.1,0.3-0.1,0.5c0,0.2-0.1,0.3-0.1,0.5
		c0,0.1-0.1,0.3-0.1,0.4c0,0.2-0.1,0.3-0.1,0.5c0,0.1-0.1,0.3-0.1,0.4c0,0.2-0.1,0.3-0.1,0.5c0,0.1-0.1,0.3-0.1,0.4
		c-0.1,0.2-0.1,0.3-0.2,0.5c-0.1,0.3-0.2,0.6-0.3,0.8c-2.9,5.5-7.6,10-13.4,12.4v0c-1,0.4-2.1,0.8-3.2,1.1c0,0,0,0-0.1,0
		c-0.4,0.1-0.7,0.2-1.1,0.3c0,0,0,0,0,0c-0.7,0.2-1.5,0.3-2.3,0.4c0,0,0,0-0.1,0c-0.3,0-0.7,0.1-1,0.1c-0.1,0-0.1,0-0.2,0
		c-0.3,0-0.7,0.1-1,0.1c0,0,0,0-0.1,0c2.2-0.1,4.2-0.8,6-1.7h0c4.6-2.5,7.8-7.4,7.8-13c0-8.2-6.6-14.8-14.8-14.8
		c-8.2,0-14.8,6.6-14.8,14.8c0,0.4,0,0.8,0,1.2c-1.2-2.7-1.9-5.6-1.9-8.8c0-11.5,9.3-20.8,20.8-20.8c11.5,0,20.8,9.3,20.8,20.8
		C81.3,40.2,81.3,40.3,81.3,40.3z"/>
	<path fill="#ECECEC" d="M77.6,50.3l-0.7-0.4c0.1-0.4,0.2-0.6,0.5-0.6c0.3,0,0.7-0.3,0.7-0.3c0,0,0-0.1,0-0.1
		c-0.2-0.4-0.3-1-0.3-1.1c0.1-0.1,0.2-0.1,0.3-0.2c0.4-0.3,0.7-0.5,1-0.6c0.1,0,0.2-0.1,0.3-0.1c0-0.1,0.1-0.3,0.1-0.4l0-0.1
		c0,0,0.1-0.3,0.1-0.4c0-0.2,0.1-0.3,0.1-0.5l0-0.1c0-0.1,0.1-0.2,0.1-0.3c0-0.2,0.1-0.3,0.1-0.5c0-0.1,0.1-0.3,0.1-0.4
		c0-0.2,0.1-0.3,0.1-0.5c0-0.1,0.1-0.3,0.1-0.4c0-0.2,0-0.3,0.1-0.5c0-0.2,0-0.3,0.1-0.5l0-0.1c0-0.1,0-0.2,0-0.3c0-0.2,0-0.3,0-0.5
		l0-0.2c0-0.1,0-0.2,0-0.3c0-0.2,0-0.4,0-0.7l0-0.3c0-1.3-0.1-2.6-0.4-3.8c-0.3-0.2-0.8-0.3-1.2-0.4c-0.6-0.6-1-1-1-1.3
		c0,0,0,0-0.1-0.1c-0.8-0.2-1.2-0.3-1.5-0.4C76.2,34,76.1,34,75.9,34c-0.3,0-0.8-0.1-1.2-0.2c-0.2,0-0.3-0.1-0.4-0.1
		c-0.2,0-0.4-0.1-0.6-0.1c-0.1,0-0.2,0-0.3,0c-0.1,0-0.2,0-0.3,0l-0.1,0c-0.4,0-1.1,0.3-1.2,0.3l-1,0.1c-0.6-0.5-1.3-0.7-1.6-0.8
		c0,0-0.1,0-0.1,0l0,0C69,33,68.8,33,68.7,33c-0.1,0-0.2,0-0.2,0c-0.2,0.1-0.4,0.2-0.6,0.2c-0.2,0-0.4,0-0.5-0.1
		c-0.3-0.2-0.6-0.3-0.8-0.3c-0.2,0-0.3,0.1-0.4,0.3c-0.1,0.3-0.2,0.6-0.5,0.8c-0.3,0.2-0.6,0.3-0.9,0.3c0,0-0.1,0-0.1,0
		c4.6,2.7,7.6,7.7,7.6,13.4c0,2.6-0.6,5-1.8,7.2c0.1,0,0.2,0,0.3,0c0.2,0,0.5,0,0.8,0c0.6,0,0.9,0,1,0.1c0.1,0.1,0.5,0.3,0.7,0.3
		C74.8,53.8,76.3,52.1,77.6,50.3z"/>
	<path fill="#ECECEC" d="M57.1,25.9c0,0,0.1,0.1,0.1,0.1c0.2,0.1,0.4,0.4,0.6,0.6c0,0,0,0,0.1,0c0,0,0,0,0,0c0,0,0.3-0.2,0.5-0.3
		c0.1-0.1,0.4-0.2,0.6-0.2c0.2,0,0.5-0.2,0.5-0.3c0,0,0.1-0.1,0.1-0.1c0.1-0.1,0.2-0.1,0.2-0.2c0,0,0,0,0-0.1c0,0,0,0-0.1,0
		c-0.2,0-0.2,0-0.3,0c0,0-0.1,0-0.1,0c-0.1,0-0.1,0-0.2,0c-0.1,0-0.1,0-0.1-0.1c0-0.1,0-0.2-0.1-0.3c0,0,0,0,0,0
		c0.1,0,0.3-0.1,0.3-0.1c0,0,0,0,0-0.1c0-0.1,0-0.1-0.1-0.2c-0.1-0.1-0.2-0.1-0.3-0.1c-0.1,0-0.4,0-0.5,0c-0.1,0-0.1-0.1-0.2-0.2
		l0,0c-0.1-0.1-0.1-0.3-0.2-0.4l0-0.1c0-0.1-0.1-0.2-0.2-0.2c0,0,0,0,0,0c0-0.3,0.2-0.4,0.3-0.6c0.1-0.1,0.2-0.3,0-0.5
		c-0.1-0.1-0.2-0.2-0.2-0.4c-0.1-0.2-0.2-0.3-0.3-0.4c-0.1-0.2-0.5-0.5-0.5-0.5c0,0-0.1,0-0.1,0l-0.5,0.3c0,0,0,0,0,0.1
		c0,0,0,0.1,0,0.1l0.4,0.2c0,0-0.1,0.1-0.1,0.1c-0.1,0.1-0.2,0.2-0.3,0.3c0,0,0,0.1,0,0.1c0.1,0.2,0.5,0.5,0.8,0.6l-0.1,0.2
		c0,0-0.1,0.3-0.1,0.6c0,0.1,0,0.2,0,0.2c0,0.1,0,0.2,0.1,0.3c0.1,0.1,0.1,0.3,0.1,0.5c0,0.2,0,0.4,0.4,0.6
		C57.3,25.4,57.3,25.5,57.1,25.9C57,25.9,57,25.9,57.1,25.9z"/>
	<path fill="#ECECEC" d="M41.2,44.5c1-5,4.4-9.1,8.9-11.1c-0.4-0.4-0.7-0.8-0.8-1c0.1,0,0.2,0.1,0.3,0.1c0.3,0.1,0.5,0.2,0.6,0.4
		c0.1,0.1,0.2,0.2,0.2,0.3c0.1,0,0.1,0.1,0.1,0.1c0.2-0.1,0.4-0.2,0.6-0.2c0-0.1,0-0.1,0-0.2c0.1,0,0.2,0.1,0.2,0.1
		c1.6-0.6,3.4-0.9,5.2-0.9c0,0,0,0,0.1,0c0,0,0,0,0.1,0c0.4,0,0.9,0,1.3,0.1c0,0,0.1-0.1,0.1-0.1c0.1,0,0.7,0.1,0.9,0.1
		c0.3,0.1,0.5-0.1,0.6-0.3c0.1,0,0.3-0.1,0.5-0.3c0.1,0.1,0.2,0.3,0.5,0.5l0.2,0.2c0,0,0,0,0.1,0c0,0,0.7-0.1,0.9-0.1l0,0
		c0.1,0,0.2,0.1,0.4,0.1c0.1,0,0.2,0.1,0.2,0.1c0.2,0.1,0.4,0.4,0.4,0.4l0.1,0.2c0,0,0,0,0,0c0.1,0,0.4,0.1,0.5,0.2
		c0.1,0.1,0.7,0.2,1,0.2c0.1,0,0.1,0,0.2,0c0,0,0.3-0.1,0.6-0.5c0.2-0.3,0.4-0.2,0.4-0.2c0,0,0.1,0,0.2,0c0.1,0,0.2,0,0.2-0.1
		c0,0,0,0,0-0.1c0,0,0-0.6-0.1-0.9c-0.1-0.2,0.2-0.4,0.5-0.5c0.1-0.1,0.2-0.1,0.2-0.2c0,0,0,0,0-0.1c0,0,0,0,0-0.1
		c0,0-0.5-0.4-0.6-0.5c-0.1-0.1-0.2-0.2-0.1-0.4c0-0.1,0-0.1,0-0.2c-0.1-0.1-0.2-0.2-0.3-0.2l0,0c-0.1-0.1-1-0.7-1.2-0.9
		c-0.1-0.1-0.3-0.3-0.4-0.6c0-0.2-0.2-0.2-0.5-0.2c-0.2,0-0.3,0-0.3,0c0,0-0.2,0.1-0.3,0.2c0,0-0.1,0.1-0.1,0.1
		c-0.1,0.1-0.3,0.3-0.4,0.5c-0.2,0.3-0.5,0.5-0.6,0.7c-0.2,0.1-0.3,0.3-0.3,0.4c-0.7-0.7-1.2-1.2-1.3-1.3c0-0.1,0-0.1,0-0.1
		c0.1-0.2,0.1-0.4-0.2-0.5c0.1-0.2,0.1-0.3,0.2-0.4c0.1-0.2,0.1-0.2,0.2-0.3c0,0,0,0,0-0.1c0-0.2,0-0.4-0.1-0.5
		c-0.1-0.1-0.1-0.1-0.3-0.1l0,0c-0.3,0-0.6,0.4-0.7,0.6c-0.2-0.4-0.3-0.6-0.3-0.6c0,0,0,0-0.1,0c0,0,0,0-0.1,0c0,0-0.3,0.3-0.4,0.5
		c0,0,0,0-0.1,0c-0.1,0-0.3-0.1-0.4-0.2c-0.1,0-0.1-0.1-0.1-0.1c-0.1-0.1-0.1-0.2-0.5-0.1c-0.3,0-0.7-0.1-1.2-0.5
		c-0.1-0.1-0.2-0.1-0.3-0.1c-0.1,0-0.3,0.1-0.4,0.2c-0.2-0.1-0.7-0.6-0.8-0.7c-0.2-0.1-0.4-0.7-0.4-1c0-0.4-0.4-0.4-0.8-0.5
		c0,0-0.1,0-0.1,0c0,0,0,0.1,0,0.1l0.4,0.6c0,0,0,0.1-0.1,0.2c0,0.1-0.1,0.1,0,0.2c0,0,0.1,0.1,0.1,0.1c0,0,0.1,0,0.2,0.1
		c0.2,0.1,0.3,0.3,0.3,0.5c-0.1,0.1-0.2,0.2-0.4,0.4c-0.3,0.2-0.3,0.5-0.3,0.8c-0.2-0.1-0.6-0.2-0.8-0.2c-0.1,0-0.3,0-0.4,0.1
		c0,0.1-0.1,0.1-0.1,0.2c-0.2-0.1-0.5-0.2-0.5-0.3c0,0-0.1-0.2-0.2-0.3c-0.1-0.1-0.1-0.2-0.1-0.2c-0.1-0.1-0.1-0.3-0.1-0.5
		c0-0.2-0.1-0.3-0.1-0.5c0,0,0-0.1-0.1-0.1c0-0.1-0.1-0.1-0.1-0.1c-0.2,0-0.3,0.3-0.3,0.4c0,0,0,0.1,0,0.1c0,0,0,0,0,0
		c0-0.1,0-0.2,0-0.3c0-0.2-0.1-0.3,0-0.4c0-0.2,0-0.3-0.1-0.5l0-0.1c0-0.1-0.2-0.2-0.4-0.2c-0.2,0-0.6,0.1-0.6,0.2
		c0,0-0.2-0.1-0.3-0.2c-0.1,0-0.1-0.1-0.2-0.1c0,0,0,0,0-0.1c0,0,0.1-0.1,0.1-0.2c0,0,0,0,0,0c-5.1,3.6-8.4,9.6-8.4,16.3
		C40.7,41.6,40.8,43.1,41.2,44.5z"/>
	<path fill="#ECECEC" d="M60.4,23.6C60.4,23.5,60.4,23.5,60.4,23.6c0-0.4-0.1-0.5-0.3-0.5c0,0,0,0-0.1,0c-0.1,0-0.4-0.1-0.5-0.1
		c0.1-0.2,0.1-0.2,0.1-0.3c0,0,0,0,0-0.1c-0.1-0.2-0.2-0.3-0.3-0.3c-0.1,0-0.1,0-0.2,0.1c-0.1,0.1-0.2,0.1-0.2,0.1
		c-0.1,0-0.1-0.1-0.2-0.2c-0.2-0.2-0.2-0.2-0.3-0.2c0,0-0.1,0-0.1,0c0,0,0,0.1,0,0.1c0,0,0,0.1,0,0.1c0,0-0.1,0-0.1,0
		c-0.1,0-0.2,0.1-0.3,0.2c-0.1,0.1,0,0.5,0.1,0.7c0,0,0,0.1,0.1,0c0.2,0,0.3,0.1,0.3,0.1c0,0,0,0,0,0c0.1,0.1,0.3,0.3,0.4,0.4
		c0,0,0.2,0.4,0.4,0.4l0,0c0,0,0.1,0,0.1,0c0.1-0.1,0.4-0.3,0.5-0.3C60,23.9,60.3,23.6,60.4,23.6z"/>
	<path fill="#276092" d="M94.5,62.3h-2.9V65h2.8v1h-2.8v3.9h-1.2v-8.6h4.4L94.5,62.3z"/>
	<path fill="#276092" d="M97.4,62.4c0.8-0.8,1.8-1.2,3.1-1.2c1.3,0,2.5,0.5,3.2,1.4c0.7,0.8,1.1,1.8,1.1,3.1c0,1.3-0.5,2.5-1.3,3.3
		c-0.8,0.7-1.8,1.2-3.1,1.2c-1.2,0-2.2-0.4-3-1.1c-0.9-0.8-1.4-2-1.4-3.3C96.2,64.3,96.6,63.2,97.4,62.4z M100.5,62.2
		c-1.9,0-3.1,1.3-3.1,3.4c0,2.1,1.2,3.4,3.1,3.4s3.1-1.3,3.1-3.4C103.6,63.7,102.5,62.2,100.5,62.2z"/>
	<path fill="#276092" d="M107.2,62.4c0.8-0.8,1.8-1.2,3.1-1.2c1.3,0,2.5,0.5,3.2,1.4c0.7,0.8,1.1,1.8,1.1,3.1c0,1.3-0.5,2.5-1.3,3.3
		c-0.8,0.7-1.8,1.2-3.1,1.2c-1.2,0-2.2-0.4-3-1.1c-0.9-0.8-1.4-2-1.4-3.3C105.9,64.3,106.4,63.2,107.2,62.4z M110.3,62.2
		c-1.9,0-3.1,1.3-3.1,3.4c0,2.1,1.2,3.4,3.1,3.4c1.9,0,3.1-1.3,3.1-3.4C113.3,63.7,112.2,62.2,110.3,62.2z"/>
	<path fill="#276092" d="M118.3,69.9h-2.1v-8.6h2.1c3.2,0,4.7,1.8,4.7,4.2C123,68,121.5,69.9,118.3,69.9z M118.4,62.3h-1v6.6h1
		c2.5,0,3.4-1.6,3.4-3.4C121.8,63.7,120.7,62.3,118.4,62.3z"/>
	<path fill="#276092" d="M129.6,66.8H129v3.1h-1.2v-8.6h1.9c1.8,0,3,1,3,2.7C132.7,65.4,131.8,66.8,129.6,66.8z M129.6,62.3H129v3.5
		h0.7c1.2,0,1.8-0.7,1.8-1.8C131.5,63,130.9,62.3,129.6,62.3z"/>
	<path fill="#276092" d="M138.8,69.9c-1.4-2.2-2.1-3.5-2.5-3.6h-0.9v3.6h-1.2v-8.6h2c2.1,0,2.9,1.1,2.9,2.4c0,1.2-0.8,2-1.7,2.3v0
		c0.3,0.2,1.3,1.7,2.6,3.9H138.8z M136.2,62.3h-0.8v3.1h0.9c0.9,0,1.7-0.7,1.7-1.6C137.9,63,137.5,62.3,136.2,62.3z"/>
	<path fill="#276092" d="M142.1,62.4c0.8-0.8,1.8-1.2,3.1-1.2c1.3,0,2.5,0.5,3.2,1.4c0.7,0.8,1.1,1.8,1.1,3.1c0,1.3-0.5,2.5-1.3,3.3
		c-0.8,0.7-1.8,1.2-3.1,1.2c-1.2,0-2.2-0.4-3-1.1c-0.9-0.8-1.4-2-1.4-3.3C140.8,64.3,141.3,63.2,142.1,62.4z M145.2,62.2
		c-1.9,0-3.1,1.3-3.1,3.4c0,2.1,1.2,3.4,3.1,3.4c1.9,0,3.1-1.3,3.1-3.4C148.2,63.7,147.1,62.2,145.2,62.2z"/>
	<path fill="#276092" d="M154.8,70c-2.6,0-4.2-1.9-4.2-4.4c0-2.5,1.8-4.5,4.4-4.5c1,0,1.8,0.2,2.2,0.5l0,1.2
		c-0.7-0.4-1.3-0.6-2.2-0.6c-2,0-3.2,1.5-3.2,3.4c0,2,1.2,3.4,3.1,3.4c0.7,0,1.5-0.2,2.1-0.6l0.3,0.9C156.5,69.8,155.6,70,154.8,70z
		"/>
	<path fill="#276092" d="M158.8,69.9v-8.6h4.4l-0.4,1H160V65h2.8v1H160v2.9h3.3v1H158.8z"/>
	<path fill="#276092" d="M166.9,70c-1.2,0-2-0.4-2.5-0.7l0.5-0.9c0.4,0.3,1.1,0.6,1.9,0.6c0.7,0,1.6-0.4,1.6-1.2
		c0-1.4-2.1-1.7-3.1-2.9c-0.4-0.4-0.6-0.9-0.6-1.6c0-1.2,0.9-2.2,2.6-2.2c0.9,0,1.6,0.2,2,0.4l0,1.2c-0.5-0.3-1.2-0.6-1.9-0.6
		c-0.8,0-1.5,0.3-1.5,1.1c0,1.8,3.8,1.8,3.8,4.4C169.8,69.1,168.5,70,166.9,70z"/>
	<path fill="#276092" d="M173.3,70c-1.2,0-2-0.4-2.5-0.7l0.5-0.9c0.4,0.3,1.1,0.6,1.9,0.6c0.7,0,1.6-0.4,1.6-1.2
		c0-1.4-2.1-1.7-3.1-2.9c-0.4-0.4-0.6-0.9-0.6-1.6c0-1.2,0.9-2.2,2.6-2.2c0.9,0,1.6,0.2,2,0.4l0,1.2c-0.5-0.3-1.2-0.6-1.9-0.6
		c-0.8,0-1.5,0.3-1.5,1.1c0,1.8,3.8,1.8,3.8,4.4C176.1,69.1,174.9,70,173.3,70z"/>
	<path fill="#276092" d="M177.7,69.9v-8.6h1.2v8.6H177.7z"/>
	<path fill="#276092" d="M187.2,69.9l-4.2-5.6c-0.5-0.6-0.7-0.9-0.9-1.3h0c0,0.3,0,0.6,0,1.1v5.8h-1.2v-8.6h1.2l4.1,5.4
		c0.5,0.7,0.8,1,0.9,1.4h0c0-0.3,0-0.7,0-1.1v-5.6h1.2v8.6H187.2z"/>
	<path fill="#276092" d="M194.2,70c-2.6,0-4.3-1.8-4.3-4.3c0-2.7,1.8-4.5,4.6-4.5c1.1,0,2,0.3,2.5,0.5l0,1.2
		c-0.6-0.3-1.4-0.7-2.4-0.7c-2.2,0-3.4,1.4-3.4,3.4c0,2.1,1.3,3.4,3.3,3.4c0.7,0,1.2-0.1,1.5-0.3v-3h1.2v3.6
		C196.6,69.6,195.5,70,194.2,70z"/>
	<path fill="#276092" d="M202.4,69.9v-8.6h4.4l-0.4,1h-2.9V65h2.8v1h-2.8v2.9h3.3v1H202.4z"/>
	<path fill="#276092" d="M215.3,69c-0.7,0.6-1.5,1-2.6,1.1c0.6,0.6,1.2,1,2.1,1c0.4,0,0.8-0.1,1-0.2l0.2,0.9c-0.4,0.2-1,0.3-1.6,0.3
		c-1.5,0-2.5-1-3.3-2c-0.7-0.2-1.4-0.5-1.9-1c-0.8-0.8-1.3-1.9-1.3-3.3c0-1.3,0.4-2.4,1.2-3.2c0.8-0.8,1.8-1.3,3.1-1.3
		c1.2,0,2.3,0.4,3,1.1c0.8,0.8,1.3,1.9,1.3,3.3C216.7,67,216.2,68.2,215.3,69z M212.4,62.2c-1.9,0-3.1,1.3-3.1,3.4
		c0,2.1,1.2,3.4,3.1,3.4c1.9,0,3.1-1.3,3.1-3.4C215.4,63.7,214.3,62.2,212.4,62.2z"/>
	<path fill="#276092" d="M224.1,69.1c-0.5,0.6-1.4,0.9-2.6,0.9c-1.1,0-1.9-0.3-2.4-0.8c-0.7-0.7-0.8-1.6-0.8-2.5v-5.5h1.2v5.5
		c0,0.6,0.1,1.3,0.6,1.7c0.3,0.3,0.8,0.6,1.5,0.6c0.8,0,1.3-0.2,1.7-0.6c0.4-0.4,0.5-1,0.5-1.6v-5.6h1.2v5.6
		C224.9,67.8,224.7,68.6,224.1,69.1z"/>
	<path fill="#276092" d="M227.1,69.9v-8.6h1.2v8.6H227.1z"/>
	<path fill="#276092" d="M232.1,66.8h-0.6v3.1h-1.2v-8.6h1.9c1.8,0,3,1,3,2.7C235.2,65.4,234.3,66.8,232.1,66.8z M232.1,62.3h-0.6
		v3.5h0.7c1.2,0,1.8-0.7,1.8-1.8C234,63,233.3,62.3,232.1,62.3z"/>
	<path fill="#276092" d="M243.9,69.9V64c0-0.3,0-0.5,0-0.9h0c-0.1,0.4-0.3,0.6-0.5,0.9l-2.1,3.4h-0.7l-2.3-3.4
		c-0.1-0.2-0.3-0.5-0.5-0.9h0c0.1,0.4,0.1,0.6,0.1,0.9v5.9h-1.2v-8.6h1.1l2.6,3.9c0.2,0.4,0.4,0.6,0.5,0.8h0
		c0.1-0.2,0.2-0.5,0.4-0.8l2.5-3.9h1.2v8.6H243.9z"/>
	<path fill="#276092" d="M247.1,69.9v-8.6h4.4l-0.4,1h-2.9V65h2.8v1h-2.8v2.9h3.3v1H247.1z"/>
	<path fill="#276092" d="M259.5,69.9l-4.2-5.6c-0.5-0.6-0.7-0.9-0.9-1.3h0c0,0.3,0,0.6,0,1.1v5.8h-1.2v-8.6h1.2l4.1,5.4
		c0.5,0.7,0.8,1,0.9,1.4h0c0-0.3,0-0.7,0-1.1v-5.6h1.2v8.6H259.5z"/>
	<path fill="#276092" d="M268,62.3h-2.4v7.6h-1.2v-7.6h-2.5v-1h6.4L268,62.3z"/>
	<path fill="#343434" d="M111,31.4c2.8-1.9,4.3-5,4.3-8.8c0-5.3-3.7-10.9-12-10.9H90.4v43h12c11.3,0,15.4-6.7,15.4-13
		C117.9,36.6,114.6,32.9,111,31.4z M102.6,48.1h-4.9V36h5.2c4.4,0,7.4,2.3,7.4,5.7C110.3,45.7,107.4,48.1,102.6,48.1z M101.9,29.5
		h-4.2V18.3h3.9c4.2,0,6.3,1.8,6.3,5.4C107.8,27.4,104.8,29.5,101.9,29.5z"/>
	<path fill="#343434" d="M138,35.2c4.6-2.2,7.3-6.3,7.3-11.3c0-7.7-5.4-12.2-14.8-12.2h-10.2v43h7.2V37.6h3.2
		c1.2,0.4,4.6,5.9,8.8,12.8c0.8,1.3,2.7,4.4,2.7,4.4h8.4l-3.1-5C142.5,41.6,139.7,37.1,138,35.2z M137.8,24.5c0,3.8-3.1,6.8-7.1,6.8
		h-3.3v-13h3.1C136.6,18.3,137.8,21.7,137.8,24.5z"/>
	<polygon fill="#343434" points="249.4,32.8 266.8,11.8 258,11.8 244.1,29 244.1,11.7 237,11.7 237,54.7 244.2,54.7 244.2,37.5 
		259,54.7 268.3,54.7 	"/>
	<path fill="#343434" d="M168.2,11.5c-5.9,0-11.3,2.2-15.2,6.1c-3.9,4.1-6,9.5-6,15.7c0,6.5,2.4,12.3,6.6,16.3
		c3.8,3.5,8.8,5.3,14.5,5.3c5.9,0,11.1-2,15-5.7c4-4,6.3-9.6,6.3-15.9c0-5.9-1.8-11.1-5.3-15C180.3,13.9,174.6,11.5,168.2,11.5z
		 M168.2,48.5c-8.5,0-13.8-5.8-13.8-15.2c0-9.4,5.3-15.2,13.8-15.2c8.5,0,13.8,5.8,13.8,15.2C181.9,42.7,176.7,48.5,168.2,48.5z"/>
	<path fill="#343434" d="M228.9,18.2c-3.8-4.3-9.5-6.7-15.9-6.7c-5.9,0-11.3,2.2-15.2,6.1c-3.9,4.1-6,9.5-6,15.7
		c0,6.5,2.4,12.3,6.6,16.3c3.8,3.5,8.8,5.3,14.5,5.3c5.9,0,11.1-2,15-5.7c4-4,6.3-9.6,6.3-15.9C234.2,27.4,232.4,22.2,228.9,18.2z
		 M213,48.5c-8.5,0-13.8-5.8-13.8-15.2c0-9.4,5.3-15.2,13.8-15.2c8.5,0,13.8,5.8,13.8,15.2C226.7,42.7,221.5,48.5,213,48.5z"/>
	<path fill="#276092" stroke="#276092" stroke-miterlimit="10" d="M1.3,41.8c0,22.1,17.9,40,40,40c21.2,0,38.5-16.5,39.9-37.4
		c0,0,0,0,0,0c0.1-0.9,0.1-1.8,0.1-2.6c0-0.8,0-1.5-0.1-2.3c0,0.2,0,0.4,0,0.6c0,2.8-0.6,5.5-1.6,7.9c-4.4,8.6-13.3,14.4-23.7,14.4
		c-14.7,0-26.6-11.9-26.6-26.6c0-14.7,11.9-26.6,26.6-26.6c4.4,0,8.6,1.1,12.3,3c-7.1-6.5-16.6-10.5-27-10.5
		C19.3,1.8,1.3,19.7,1.3,41.8z"/>
	<path fill="#ECECEC" d="M49.6,23.7c0.1,0,0.2,0,0.3,0.1c0.1,0,0.2,0.1,0.5,0.1c0,0,0.1,0,0.1,0c0,0,0-0.2,0.1-0.5
		c0.1-0.2,0-0.4,0-0.6c-0.4,0.3-0.9,0.5-1.3,0.8C49.4,23.7,49.5,23.7,49.6,23.7z"/>
	<path fill="#ECECEC" d="M51.3,23c0,0.1-0.1,0.4-0.1,0.7c0,0.3,0.4,0.4,0.7,0.4c0.1,0,0.2,0,0.2,0c0.1,0.1,0.3,0.8,0.4,1.1
		c0,0.1,0,0.2,0.1,0.2c0,0.1,0.1,0.3,0.3,0.3c0.1,0,0.1,0,0.2-0.1c0.1,0.1,0.2,0.2,0.4,0.2c0.1,0,0.1,0,0.2-0.1c0,0,0.1,0,0.1,0
		c0,0,0,0,0,0.1c0,0,0,0.1,0.1,0.1c0,0,0,0,0.1,0c0,0,0,0,0-0.1c0-0.2-0.3-0.7-0.5-0.9c-0.1-0.1-0.2-0.5-0.2-0.9
		c0-0.2,0-0.4-0.1-0.5c0,0,0-0.1-0.1-0.1c-0.1-0.2-0.1-0.3,0-0.5c0,0,0,0,0,0c0-0.1,0-0.1,0-0.1c0,0,0.1,0,0.1,0.1
		c0.1,0.1,0.2,0.1,0.3,0.2c0.1,0,0.2,0.1,0.3,0.2c0.1,0.1,0.2,0.1,0.2,0.1c0.2,0,0.3-0.3,0.3-0.7c0,0,0,0,0,0c0,0-0.3-0.7-0.4-1.2
		c0-0.1-0.1-0.2-0.1-0.3c-0.9,0.3-1.8,0.7-2.7,1.2C51.2,22.7,51.2,22.8,51.3,23z"/>
	<path fill="#ADBCD2" d="M48,9.3c0-0.1-0.1-0.2-0.2-0.2c-0.1,0-0.2,0-0.3,0.1c0,0-0.1,0-0.1,0.1c-0.2,0.1-0.3,0.3-0.3,0.4
		c0,0.1,0.1,0.1,0.2,0.1c0,0,0.1,0,0.1,0c0.1,0,0.2-0.1,0.3-0.1c0.2-0.1,0.4-0.1,0.6-0.2L48,9.3z"/>
	<path fill="#ADBCD2" d="M33.4,12.2C33.4,12.2,33.4,12.2,33.4,12.2l0.5-0.3c0,0,0-0.1,0-0.1c0,0,0-0.1-0.1,0c0,0,0,0-0.1,0
		c0,0-0.1,0-0.1,0c0,0,0,0-0.1,0C33.4,11.8,33.3,12.1,33.4,12.2C33.3,12.2,33.3,12.2,33.4,12.2C33.4,12.2,33.4,12.2,33.4,12.2z"/>
	<path fill="#ADBCD2" d="M35,10C35,10,35,10,35,10c-0.1,0-0.3,0.1-0.6,0.2c-0.1,0-0.1,0.1-0.1,0.1c0,0.1,0.1,0.1,0.2,0.2
		c0,0,0.1,0.1,0.1,0.1c-0.1,0.1-0.1,0.2-0.1,0.3c0,0,0.1,0,0.1,0c0,0,0.1,0,0.1-0.1c0.1-0.1,0.2-0.1,0.3-0.2c0,0,0,0,0,0
		c-0.2,0.2-0.3,0.3-0.3,0.3c0,0,0,0,0,0.1c0,0,0,0,0.1,0l0.3,0.1c0,0,0,0,0,0c0,0,0.1,0,0.1-0.1c0-0.2,0.1-0.4,0.2-0.4
		c0,0,0-0.1,0-0.1c0,0-0.1,0-0.1,0c-0.1,0-0.1,0.1-0.2,0.1c0-0.1,0-0.1,0-0.2c0,0,0-0.1,0-0.1c0,0,0-0.1,0-0.1
		C35.1,10.2,35.1,10.1,35,10z"/>
	<path fill="#ADBCD2" d="M41.2,10.9C41.2,10.9,41.2,10.9,41.2,10.9C41.2,10.9,41.2,10.9,41.2,10.9c-0.3-0.1-0.7-0.3-0.7-0.4
		c0,0-0.1,0-0.1,0c0,0-1.2,0.5-1.4,0.6l0,0c-0.1,0-0.2,0.1-0.2,0.1c0,0.1,0,0.1,0.2,0.2c-0.1,0.1-0.2,0.2-0.4,0.3
		c0,0-0.3,0.1-0.7,0.1c-0.5,0-0.5,0.3-0.5,0.5c0,0,0,0.1,0,0.1c0,0.3,0.1,0.4,0.2,0.6c0,0,0.1,0.1,0.1,0.1c0,0,0,0,0.1,0
		c0,0,0.1,0,0.3,0c0.3,0,0.5,0,0.6,0.1c0.2,0.1,0.3,0.2,0.4,0.6c0.1,0.1,0.1,0.3,0.1,0.4c1.7-1.3,3.5-2.4,5.4-3.3c0-0.2,0-0.5,0-0.5
		c0,0,0-0.1-0.2-0.1c-0.3,0-1,0.3-1.2,0.5c-0.1,0-0.2-0.1-0.4-0.1c0.1-0.1,0.4-0.2,0.7-0.3c0,0,0.1,0,0-0.1c0,0,0-0.1-0.1-0.1
		c0,0-0.2,0-0.4-0.1c-0.1,0-0.1-0.1-0.1-0.1c-0.1-0.1-0.2-0.2-0.5-0.1c-0.3,0.1-1.1,0.2-1.1,0.2c0,0,0,0,0,0c0,0,0,0,0,0.1
		C41.2,10.3,41.3,10.6,41.2,10.9C41.2,10.9,41.2,10.9,41.2,10.9z"/>
	<path fill="#ADBCD2" d="M34.1,12.7C34.2,12.7,34.2,12.7,34.1,12.7c0.2,0,0.7,0.3,1,0.5c0,0,0.1,0,0.1,0c0.2,0,0.3-0.1,0.4-0.3
		l0.2-0.2c0,0,0-0.1,0-0.1c0,0-0.1,0-0.1,0c0,0,0,0,0,0c-0.1,0-0.3,0-0.3-0.1c-0.1-0.1-0.4-0.2-0.5-0.2c0,0,0,0-0.1,0
		c-0.1,0-0.1,0-0.2-0.2c0,0,0-0.1,0-0.1c0-0.1,0.2-0.1,0.3-0.2c0,0,0.1-0.1,0-0.1l-0.2-0.6c0,0,0,0,0,0l-0.3-0.1c0,0,0,0,0,0
		c0,0-0.2,0.1-0.2,0.3c0,0.1,0,0.1-0.1,0.2c0,0.1-0.1,0.2-0.1,0.2c0,0.1,0,0.1-0.1,0.2c0,0.1-0.1,0.1-0.1,0.2c-0.1,0.1,0,0.2,0,0.2
		C33.8,12.7,34,12.7,34.1,12.7z"/>
	<path fill="#ADBCD2" d="M33.1,11.1c0,0,0.1-0.1,0.1-0.2c0-0.1,0.1-0.1,0.1-0.2c0-0.1,0-0.1,0-0.1c-0.1-0.1-0.2-0.1-0.3-0.1
		c-0.1-0.1-0.3-0.1-0.3-0.2c-0.1-0.1-0.2-0.2-0.3-0.2c-0.1,0-0.1,0-0.2,0c-0.1,0.1-0.2,0.1-0.3,0.2c-0.1,0-0.1,0.1-0.1,0.1
		c0,0-0.1,0.1-0.2,0.2c-0.1,0-0.2,0.1-0.2,0.2c0,0.1,0.1,0.1,0.2,0.1c0,0,0.1,0,0.1,0c0,0,0,0,0,0c0.1,0.1,0.1,0.1,0.3,0.1
		c0.1,0,0.2,0.1,0.4,0.2h0v0c0,0,0.1,0,0.1,0.1c0,0,0,0,0,0c0,0,0,0,0,0c0,0,0.1,0,0.1-0.1c0,0,0,0,0-0.1c0.1,0,0.1-0.1,0.2-0.1
		C32.9,11.2,33,11.2,33.1,11.1z"/>
	<path fill="#ADBCD2" d="M36.6,12.2c0.1,0,0.1,0,0.2-0.1c0.1-0.1,0.3-0.1,0.4-0.2c0.1,0,0.3-0.1,0.3-0.1c0.1-0.1,0.9-0.5,1-0.6
		c0.1,0,1.1-0.6,1.3-0.7c0,0,0,0,0-0.1c0,0,0-0.1-0.1-0.1c-0.6-0.2-0.6-0.2-0.7-0.3c-0.1-0.2-0.5-0.2-0.6-0.3c0,0,0,0,0,0
		c-0.3,0.1-0.6,0.1-0.7,0.1c-0.1,0-0.2,0-0.2,0c0,0-0.1-0.1-0.2-0.1c-0.1,0-0.2,0.1-0.2,0.1c0,0,0,0,0,0.1c0,0.2-0.1,0.4-0.2,0.5
		c0-0.1,0.1-0.3,0.1-0.3c0,0,0,0,0-0.1c0,0,0,0-0.1,0c-0.1,0-0.3,0-0.3,0c-0.2,0-0.3,0-0.4,0.1c-0.1,0.1-0.3,0.2-0.4,0.2l0,0
		c-0.1,0-0.2,0.2-0.2,0.4c0,0-0.1,0.1-0.1,0.2c-0.1,0.1-0.1,0.2-0.1,0.3c0,0,0,0.1,0.1,0.1c0,0,0.1,0,0.2-0.1c0.1,0,0.6-0.1,0.8-0.1
		c0,0,0,0,0,0c0,0,0,0,0.1,0c0.1,0,0.2-0.1,0.2-0.1c0,0,0,0,0-0.1c0-0.1,0-0.1,0-0.2c0,0,0,0.1,0.1,0.1c0,0,0,0.2,0,0.3
		c-0.2,0.1-0.5,0.2-0.7,0.3c-0.3,0.1-0.5,0.2-0.6,0.2c0,0-0.1,0-0.1,0c-0.1,0-0.3,0.1-0.4,0.2c0,0,0,0.1,0.1,0.2
		c0.2,0.2,0.6,0.3,0.6,0.3c0,0,0,0,0,0c0,0,0,0,0,0c0,0,0,0,0,0c0,0,0.1-0.1,0.1-0.1c0.1,0,0.2-0.1,0.2-0.1c0,0,0-0.1,0-0.1
		c0,0,0-0.1,0.1-0.2C36.3,12.1,36.5,12.2,36.6,12.2z"/>
	<path fill="#ADBCD2" d="M33,11.8c0.1,0,0.3,0.1,0.3,0.1c0,0,0,0,0,0c0,0,0,0,0.1,0c0.1-0.1,0.3-0.2,0.4-0.2c0,0,0,0,0,0
		c0,0,0,0,0.1-0.1c0.1-0.1,0.2-0.2,0.2-0.3c0-0.1-0.1-0.1-0.2-0.1c-0.1,0-0.1,0-0.1-0.1c-0.1,0-0.2,0-0.3,0
		c-0.2,0.1-0.4,0.2-0.4,0.2c0,0,0,0,0,0.1c0,0.1,0,0.1-0.1,0.2C32.9,11.6,32.8,11.7,33,11.8C32.9,11.8,32.9,11.8,33,11.8z"/>
	<path fill="#ADBCD2" d="M33.5,10.2c0.2,0,0.4,0,0.4,0c0,0,0,0,0,0c0,0,0,0,0,0c0,0,0.1,0,0.1-0.1c0,0,0-0.1,0-0.1
		C33.9,10,33.9,10,33.9,10c0,0,0-0.1-0.1-0.1c0,0,0,0-0.1,0l0,0c0,0-0.1,0-0.1,0c-0.2,0.1-0.2,0.1-0.2,0.2
		C33.4,10.2,33.4,10.2,33.5,10.2C33.5,10.2,33.5,10.2,33.5,10.2z"/>
	<path fill="#ADBCD2" d="M32.1,9.6C32,9.6,32,9.7,32,9.8c0,0,0,0,0,0.1c0,0,0,0.1,0,0.1c0,0,0,0,0.1,0c0,0,0.1,0,0.1,0
		c0.1,0,0.1,0,0.2,0c0.1,0,0.1,0,0.2,0c0,0,0.1,0,0.2,0c0.1,0,0.3,0,0.3,0c0.1,0,0.2-0.1,0.2-0.1c0,0,0-0.1-0.1-0.1l0,0
		c-0.1,0-0.2-0.1-0.2-0.1c0,0,0,0-0.1,0c-0.3,0-0.5,0-0.6,0C32.2,9.6,32.2,9.6,32.1,9.6C32.1,9.6,32.1,9.6,32.1,9.6
		C32.1,9.6,32.1,9.6,32.1,9.6z"/>
	<path fill="#ADBCD2" d="M42.2,73.5c0.2-0.1,0.4-0.1,0.4,0c0,0,0.1,0,0.2,0c0.1,0,0.3,0,0.4-0.1c0,0,0,0,0.1,0
		c0.1-0.1,0.3-0.3,0.6-0.3c0,0,0,0,0.1,0c0.1-0.3,0.1-0.3,0.2-0.3l0,0c0,0,0,0,0,0c0-0.2,0.1-0.2,0.2-0.3c0,0,0,0,0,0
		c0-0.1,0.1-0.2,0.1-0.3c0.1-0.2,0.2-0.4,0.4-0.5c0,0,0,0,0,0c0.1-0.2,0.3-0.4,0.3-0.4c0,0,0,0,0-0.1c-0.1-0.2,0-0.4,0.1-0.6
		c0-0.1,0-0.1,0-0.1c0.1-0.1,0.1-0.2,0.1-0.3c0-0.1,0-0.1,0-0.2c0-0.1,0-0.2,0-0.2c0,0,0-0.1,0-0.1c0.1-0.2,0.1-0.4,0.2-0.5
		c0.5-0.4,0.7-0.6,0.7-0.7c0-0.1,0.1-0.2,0.3-0.4c0.1-0.1,0.1-0.1,0.2-0.2c0.1-0.1,0.2-0.3,0.4-0.3c0.3-0.1,0.9-0.7,1-0.9
		c0-0.1,0.2-0.4,0.2-1c0.1-0.6-0.2-1-0.3-1c-0.1-0.1-0.1-0.1-0.1-0.1c0,0-0.1,0-0.1,0c-0.2,0-0.4-0.1-0.6,0c-0.2,0.1-0.3,0-0.5-0.1
		l0,0c-0.1-0.1-0.3-0.2-0.6-0.3c-0.2-0.1-0.5-0.3-0.6-0.4l0,0c-0.2-0.1-0.4-0.2-0.5-0.2c-0.1,0-0.1,0-0.2,0
		c-0.2,0.1-0.4,0.1-0.7-0.1C43.7,63,43.4,63,43,63l-0.2,0c-0.4,0-0.5-0.1-0.8-0.3l-0.1,0c-0.2-0.1-0.6-0.3-1-0.4
		c-0.2-0.1-0.4-0.1-0.6-0.2C40.1,62,39.8,62,39.6,62c-0.1,0-0.2,0-0.3,0c-0.3,0-0.4,0.2-0.5,0.4c-0.1,0.1-0.1,0.2-0.2,0.2
		c-0.2,0.2-0.3,0.2-0.5,0.2c-0.2,0-0.3,0-0.4-0.2c0.1,0,0.3,0,0.5,0c0.4-0.1,0.8-0.7,0.8-0.7c0,0,0-0.1,0-0.1c0,0-0.1,0-0.1,0
		c0,0,0,0,0,0c-0.2,0-0.7-0.2-0.8-0.2l0,0c0,0-0.1,0-0.1-0.1c-0.1,0-0.2-0.1-0.2-0.1c-0.2,0-0.2,0.2-0.3,0.4
		c-0.1,0.3-0.1,0.3-0.1,0.3c0,0-0.1,0-0.1,0.1c0-0.1,0-0.1,0-0.2c0,0,0-0.1,0-0.1c0-0.1-0.1-0.1-0.1-0.1c0,0-0.1,0-0.1-0.1
		c0,0,0-0.1,0.3-0.2c0,0,0,0,0,0c0,0,0.4-0.6,0.6-0.8c0.1-0.1,0.1-0.1,0.1-0.2c0-0.1-0.1-0.2-0.2-0.3c-0.1,0-0.1-0.1-0.2-0.1
		c-0.1-0.2-0.2-0.3-0.3-0.6c-0.1-0.3-0.4-0.4-0.6-0.5c0,0-0.1,0-0.1,0c-0.1,0-0.1-0.1-0.2-0.1c-0.1-0.1-0.2-0.1-0.4-0.3
		c-0.1-0.2-0.4-0.5-1.1-0.6c-0.2-0.2-0.4-0.2-0.5-0.2c-0.1,0-0.1,0-0.1,0c-0.1,0-0.2,0-0.4,0c-0.1,0-0.1,0-0.2,0c-0.1,0-0.2,0-0.3,0
		c-0.2,0-0.4,0-0.6,0c0,0-0.1,0-0.1,0c-0.1,0-0.5-0.3-0.5-0.6c0-0.4-0.3-0.6-0.5-0.7c0,0,0,0-0.1,0c-0.1-0.1-0.2-0.2-0.3-0.2
		c-0.1-0.1-0.1-0.1-0.2-0.2c-0.1-0.1-0.5-0.2-0.5-0.2c0,0-0.1,0-0.1,0c-0.1,0-0.2,0-0.2-0.1c0,0-0.1-0.3,0.1-0.5c0,0,0-0.1,0-0.1
		c-0.1-0.1-0.6-0.4-0.8-0.4c-0.1,0-0.2-0.1-0.2-0.2c-0.1-0.1-0.1-0.1-0.2-0.1c0,0-0.1,0-0.2-0.1c0,0,0,0-0.1,0c-0.1,0-0.1,0-0.2,0
		c-0.1,0-0.1,0-0.2,0l-0.1,0c-0.2,0-0.5-0.1-0.7,0c-0.1-0.1-0.5-0.3-0.6-0.4c-0.1,0-0.2,0-0.3,0c-0.1,0-0.1,0-0.2,0
		c-0.2-0.1-0.4-0.1-0.7-0.1c0,0-0.1-0.1-0.1-0.1c-0.1-0.1-0.1-0.2-0.3-0.2c-0.1,0-0.3-0.3-0.5-0.4l-0.1-0.1c0,0,0,0,0,0
		c0,0-0.2-0.1-0.4-0.1c0,0,0,0-0.1,0c0,0,0,0,0,0.1c0.1,0.1,0,0.2,0,0.3c0,0,0,0.1,0,0.1c-0.1,0-0.1,0-0.2,0.1c0,0,0,0-0.1,0.1
		c-0.1,0-0.1,0.1-0.2,0.1c-0.1,0-0.1,0-0.2,0c-0.1,0-0.1-0.2-0.1-0.3c0,0,0,0,0,0c0-0.1,0.3-0.8,0.4-1c0-0.1,0.1-0.1,0.1-0.1
		c0,0,0.1,0,0.1-0.1c0,0,0-0.1-0.1-0.1c0,0,0-0.1-0.1-0.1c0,0-0.1,0-0.3,0.2c-0.1,0.1-0.3,0.1-0.4,0.2c-0.2,0-0.4,0.1-0.6,0.2
		c-0.1,0.1-0.3,0.2-0.5,0.2c-0.1,0-0.2,0-0.3,0c-0.1,0-0.3,0-0.4,0l0,0c-0.2,0-0.3,0.1-0.2,0.3c0,0.1,0,0.1,0,0.3
		c-0.1,0.1-0.3,0.2-0.4,0.3c0,0-0.1,0.1-0.4,0.1c-0.1,0-0.2,0-0.4,0c-0.4-0.3-0.5-0.4-0.6-0.7c0,0,0-0.1-0.1-0.1
		c-0.1-0.1-0.1-0.2-0.3-0.2c-0.1,0-0.1,0-0.2,0c-0.2,0-0.4,0-0.6,0c-0.2,0-0.3,0-0.4,0c0,0,0,0,0,0c0-0.1-0.1-0.2-0.2-0.3
		c-0.1-0.1-0.2-0.2-0.2-0.3c-0.1-0.1-0.2-0.3-0.3-0.4c-0.2-0.2-0.2-0.2-0.1-0.3c0,0,0,0,0-0.1c-0.1-0.2-0.2-0.3-0.2-0.4
		c0.1-0.2,0.1-0.3,0.1-0.4c0,0,0-0.1,0-0.2c0,0,0-0.1,0-0.1c0-0.2,0-0.3,0.1-0.5c0.1-0.3,0.2-0.6,0.2-0.7c0.1-0.1,0.1-0.2,0.1-0.3
		c0-0.1,0-0.1,0-0.1c0,0,0,0,0,0c0.1-0.2,0.1-0.3-0.1-0.4c0,0,0,0-0.1-0.1c-0.1-0.1-0.3-0.2-0.3-0.3c0-0.2-0.3-0.4-0.5-0.5
		c-0.1,0-0.1,0-0.2-0.1c-0.1,0-0.2,0-0.2-0.1c0,0,0,0,0,0c-0.1-0.1-0.1-0.1-0.3-0.1l-0.1,0c-0.4,0-0.6-0.2-0.7-0.2
		c0-0.1-0.1-0.1-0.2-0.2c0.2-0.2,0.3-0.3,0.3-0.4c0,0,0,0,0,0c0,0,0,0,0,0c0,0,0,0,0-0.1c0,0,0,0,0,0c0-0.1,0-0.1,0-0.2
		c0-0.2,0-0.2,0-0.3c0-0.1,0.1-0.2,0.1-0.3c0.1,0.1,0.1,0.2,0.1,0.2c0,0,0.1,0,0.1,0C16,45,16,44.8,16,44.7c0,0,0-0.1,0-0.1l0-0.1
		c0-0.1,0.1-0.5,0.2-0.5c0,0,0,0,0,0c0.1-0.2,0.2-0.3,0.2-0.3c0,0,0.1-0.1,0.2-0.2c0.1-0.2,0.1-0.3,0-0.5c0-0.1-0.1-0.1-0.1-0.1
		c-0.1-0.1-0.1-0.3-0.5-0.3c-0.2,0-0.3,0-0.4-0.1c-0.1,0-0.1,0-0.3,0c0,0-0.1,0-0.1,0c-0.2,0-0.4,0.1-0.4,0.3c0,0.2-0.3,0.5-0.3,0.5
		c0,0,0,0,0,0c-0.1,0.4-0.3,0.5-0.5,0.5c-0.1-0.3-0.2-0.4-0.4-0.4c0,0-0.1,0-0.2,0c-0.3,0-0.6-0.1-0.7-0.1c-0.1-0.2-0.1-0.3-0.2-0.4
		c-0.1-0.1-0.1-0.2-0.2-0.4c0-0.2-0.1-0.3-0.1-0.4c0-0.1-0.1-0.2-0.1-0.2c0.2-0.4,0.1-0.5,0.1-0.7c0-0.1,0-0.1,0-0.2
		c0-0.3,0-0.7,0-0.8c0.2-0.4,0.2-0.7,0.2-0.9c0-0.2,0.2-0.4,0.2-0.5c0,0,0,0,0-0.1c-0.1-0.2-0.1-0.2,0-0.3l0,0
		c0.1-0.1,0.5-0.6,0.6-0.6c0,0,0,0,0,0c0-0.1,0.1-0.2,0.1-0.3c0.1-0.2,0.1-0.4,0.2-0.6c0,0,0-0.1,0-0.1c0.1-0.3,0.1-0.4,0.4-0.4
		c0.1,0,0.1,0,0.2,0c0.3,0,0.8-0.1,0.9-0.3c0.2,0.1,0.4,0.2,0.7,0.3c0,0,0.1,0,0.1,0c0,0,0-0.1,0.1-0.1c0,0,0.1,0,0.2,0.2
		c0.2,0.4,0.9,0.7,0.9,0.7c0,0,0,0,0,0c0,0,0.1,0,0.1-0.1c0,0,0,0,0,0c0-0.1,0-0.3,0-0.3c0,0,0,0,0.1,0.1l0.1,0.1
		c0.1,0.1,0.1,0.1,0.2,0.1c0,0,0,0,0.1,0c0,0,0.1,0,0.3,0c0.2,0,0.4,0,0.5-0.1c0,0,0.1,0,0.1,0c0,0,0.1,0,0.2,0.2
		c0.2,0.4,0.5,0.6,1,0.8c0.1,0,0.3,0.5,0.3,0.8c0,0.1-0.1,0.3-0.1,0.4c-0.1,0.2-0.1,0.3-0.1,0.4c0.1,0.1,0.2,1.2,0.1,1.4
		c-0.1,0.3-0.1,0.6,0.1,0.8c0.1,0.1,0.3,0.2,0.5,0.1c0.2-0.1,0.3-0.3,0.4-0.6c0-0.1,0-0.1,0.1-0.2c0.1-0.1,0.2-0.2,0.1-0.6
		c0-0.7,0-1.8,0-2.1c0-0.2,0.1-0.4,0.1-0.5c0.3-0.3,0.5-0.7,0.5-0.7c0.2-0.2,0.5-0.3,0.8-0.4c0.1,0,0.3-0.1,0.4-0.1
		c0.5-0.1,1.1-0.4,1.3-0.5c0.2-0.1,0.7-0.5,0.7-0.5c0,0,0,0,0,0c0-0.2,0.1-0.3,0.1-0.5c0.1-0.2,0.1-0.3,0-0.5
		c-0.1-0.1-0.1-0.1-0.2-0.1c0-0.1,0.1-0.2,0.1-0.2c0,0,0-0.1,0.1-0.1c0,0,0,0.1,0.1,0.1l0,0c0.1,0.1,0.1,0.1,0.2,0.1
		c0.1,0,0.2-0.1,0.2-0.2c0-0.1,0.1-0.1,0.2-0.2c0.1,0,0.1-0.1,0.1-0.1c0,0,0-0.1,0-0.1c0-0.1,0.1-0.2,0.1-0.3c0,0,0,0,0,0
		c0,0,0.1,0,0.1,0c0.1-0.1,0.2-0.2,0.2-0.2c0.1-0.1,0.1-0.1,0.2-0.1c0.3-0.1,0.3-0.3,0.3-0.4c0-0.1,0-0.2,0-0.3
		c0.2-0.1,0.6-0.2,0.6-0.2c0,0,0,0,0.1,0c0.1,0,0.1,0,0.2,0l0.1,0c0.1,0.1,0.3,0.1,0.4,0c0.1-0.1,0.3,0,0.4,0c0,0,0.1,0,0.1,0
		c0.1,0,0.1,0,0.1,0c0,0,0,0,0,0c0-0.1,0-0.2,0-0.3c0,0-0.1-0.1-0.1-0.1l0,0c0-0.1-0.1-0.1-0.1-0.2c0.2-0.2,0.2-0.3,0.3-0.5
		c0-0.1,0-0.1,0.1-0.2c0.7-3.9,2.1-7.6,4.3-10.8c-0.1,0-0.3-0.1-0.5-0.2c-0.1-0.1-0.1-0.4-0.1-0.6l0-0.1c0-0.2-0.2-0.3-0.5-0.2
		c-0.1,0.1-0.4-0.2-0.6-0.3c0,0-0.1-0.1-0.1-0.1c0,0-0.1,0-0.1,0c0,0-0.5,0.5-0.6,0.7c-0.2,0.2-0.2,0.4-0.2,0.8c0,0,0,0.3-0.2,0.3
		C30.3,21,30.2,21,29.8,21c0,0-0.1,0-0.1,0.1c0,0,0,0.1,0.1,0.1c0,0,0.1,0,0.2,0.2c0.1,0.1,0.1,0.1,0.1,0.2c0,0.1,0,0.1,0,0.3
		c0,0.2,0,0.3,0,0.4c0,0.1,0,0.2-0.1,0.5l-0.2,0.1c0,0-0.5,0.3-0.9,0.4c0,0-0.3,0.1-0.5,0.2c-0.2,0.1-0.2,0.3-0.2,0.6
		c0,0.1,0,0.2,0,0.3c-0.1,0.3-0.1,0.4,0.1,0.6c-0.2,0.1-0.3,0.2-0.4,0.3c0,0-0.1,0.1-0.1,0.1c0,0-0.1,0-0.3-0.1
		c-0.1,0-0.2-0.3-0.2-0.4c0-0.1,0-0.2-0.1-0.3c-0.1-0.1,0.1-0.4,0.1-0.6c0,0,0-0.1,0-0.1c0,0,0-0.1,0-0.2c0-0.2,0-0.5,0.4-0.8
		c0,0,0,0,0-0.1c0,0,0,0,0-0.1c0,0-0.5-0.4-0.7-0.4c-0.2,0-0.3-0.2-0.3-0.5c0-0.2-0.2-0.5-0.4-0.8c-0.1-0.1-0.1-0.2-0.1-0.3
		c-0.1-0.3-0.2-0.4-0.6-0.4c0.1-0.2,0.3-0.4,0.4-0.6c0,0,0-0.1,0-0.1c0.1-0.1,0.1-0.2,0.1-0.2c0,0-0.1-0.1-0.1-0.1
		c0.1-0.3,0.3-0.6,0.4-0.6c0.2,0,0.3-0.1,0.4-0.4c0.1-0.1,0.2-0.2,0.3-0.4c0.1,0,0.4,0,0.7-0.1c0,0,0,0,0.1,0
		c0.1-0.2,0.6-0.4,0.6-0.4c0.1,0,0.4,0,0.6-0.2c0.1-0.1,0.1-0.1,0.2-0.1c0.1,0,0.2,0,0.4,0.1c0,0,0.1,0,0.1,0c0,0,0.3-0.2,0.3-0.7
		c0.1,0,0.5-0.2,0.6-0.4c0,0,0.1,0,0.1,0c0.2,0,0.5,0.2,0.6,0.3c0.1,0.1,0.2,0.2,0.3,0.2c0.1,0,0.3-0.1,0.4-0.1
		c0.1-0.1,0.3-0.3,0.5-0.4c0.2-0.1,0.5-0.5,0.4-0.8c0-0.2-0.1-0.4-0.1-0.4c0,0-0.1-0.1-0.1-0.2c0,0,0,0,0.1,0c0.1,0,0.2,0,0.2,0.1
		c0.1,0.2,0.6,0.2,0.7,0.2c0.1,0,0.2,0,0.3,0.2l0.1,0.8c0,0,0,0.3,0.2,0.9L34,17.3c0,0-0.3,0.2-0.5,0.2c-0.2,0.1-0.1,0.2-0.1,0.3
		c0,0,0,0,0,0.1c-0.1,0-0.2,0-0.2,0c-0.1,0-0.2-0.1-0.4-0.1c-0.1,0-0.2-0.1-0.2-0.1c-0.1,0-0.1,0-0.1,0c-0.1,0-0.1,0.1-0.1,0.1
		c0,0,0,0,0,0c0,0.1-0.2,0.2-0.3,0.2c0,0,0,0-0.1,0c0,0,0,0.1,0,0.1l0.1,0.2c0,0.1,0.1,0.3,0.3,0.3c0.1,0,0.4,0.2,0.6,0.3
		c0.1,0,0.2,0.2,0.2,0.4c0,0,0,0.1,0,0.1c0,0,0,0,0,0.1c0,0.1,0.1,0.2,0.2,0.3c0.1,0,0.1,0.1,0.2,0.2c0,0,0.1,0.1,0.1,0.1
		c0.4-0.6,0.9-1.2,1.4-1.8c0-0.1,0-0.1,0-0.2c0,0,0.1,0,0.2,0c0.3-0.4,0.6-0.7,1-1c0-0.3,0-0.5,0-0.6c0-0.2-0.1-0.4-0.1-0.4
		c0,0-0.3-0.5-0.3-0.7c-0.1-0.2-0.5-0.5-0.6-0.6c0,0-0.1,0-0.1,0c-0.1,0-0.1,0-0.1-0.1c0-0.1-0.3-0.3-0.5-0.4c0,0,0-0.1,0-0.1
		c0,0,0,0,0,0c0,0.1,0.1,0.1,0.1,0.1c0.1,0,0.2,0,0.2,0c0,0,0,0,0.1,0c0,0,0.1,0.1,0.2,0.1c0,0,0.1,0,0.1,0c0,0,0.1,0,0.1-0.1
		c0-0.1-0.1-0.2-0.1-0.2c0,0,0,0,0,0c0-0.1-0.1-0.2-0.1-0.2c0,0,0,0,0,0c-0.1,0-0.2-0.1-0.3-0.1c0,0,0,0,0,0c0,0,0,0,0,0
		c0,0,0,0,0,0c0,0-0.3-0.1-0.5-0.2c0,0-0.1,0-0.2,0c-0.1,0-0.1,0-0.1,0c0,0-0.1,0-0.2,0c-0.1,0-0.3,0-0.4,0c0,0,0,0,0,0
		c0,0-0.3,0.2-0.3,0.3c-0.1,0.1-0.2,0.2-0.3,0.2c-0.1,0-0.3,0.2-0.3,0.2c0,0,0,0,0,0c0,0.1-0.1,0.3-0.2,0.4c0,0-0.1,0.1,0,0.1
		c0,0.1,0.1,0.1,0.1,0.1c0,0,0.1,0,0.1,0.1c0,0.2,0.1,0.2,0.2,0.3c0,0,0,0-0.1,0.1c-0.1,0.1-0.3,0.1-0.4,0.1c-0.1,0-0.2,0-0.3,0
		c0,0-0.1,0-0.1,0c-0.1,0-0.1,0-0.1,0c-0.1,0-0.1,0-0.3,0.1l0.2-0.4c0,0,0.1-0.2,0.3-0.2c0.3,0,0.4-0.9,0.4-0.9c0,0,0.2-0.1,0.3-0.1
		c0.2,0,0.3-0.1,0.3-0.1c0.1-0.1,0.5-0.3,0.7-0.3c0.1,0,0.2,0,0.2-0.1c0-0.1-0.2-0.4-0.4-0.5c-0.1,0-0.1,0-0.2,0
		c-0.2,0-0.3,0.2-0.4,0.3l0,0.1c0,0.1-0.1,0.2-0.2,0.2C32.2,13,32,13.1,32,13.2c0,0.1-0.1,0.1-0.1,0.1c0,0-0.1,0-0.1,0
		c0,0,0,0,0.1,0c0,0,0,0,0,0c0,0,0,0,0-0.1c0.1-0.1,0.1-0.2,0.3-0.3c0.3-0.1,0.6-0.5,0.6-0.5c0,0,0,0,0-0.1c0,0,0,0-0.1,0
		c-0.2,0-0.2-0.1-0.2-0.1c0,0,0,0,0-0.1c-0.1-0.2-0.3-0.1-0.3-0.1c0,0-0.1,0-0.1,0.1c0,0.3-0.1,0.3-0.2,0.3c-0.2,0-0.4,0.2-0.5,0.4
		c0,0-0.1,0.1-0.2,0.2c-0.2,0.2-0.3,0.3-0.2,0.4c0,0,0,0.1,0.1,0.1c0.2,0,0.4,0,0.5-0.1c-0.1,0-0.2,0.1-0.2,0.2c0,0,0,0,0,0
		c-0.1,0.1-0.2,0.2-0.5,0.3c0,0,0,0,0,0.1c0,0,0,0.2,0.1,0.5c-0.1,0.1-0.2,0.2-0.3,0.3c0,0.1-0.2,0.1-0.4,0.2
		c-0.2,0.1-0.3,0.1-0.5,0.2c0-0.2,0-0.4-0.1-0.5c-0.2-0.2-0.5-0.3-0.8-0.4c0-0.1-0.1-0.3-0.1-0.3c0,0,0-0.1,0.1-0.1
		c0-0.1,0.1-0.2,0.2-0.4c0,0,0,0,0,0c0,0.1,0,0.1,0,0.2c0,0.1,0.1,0.1,0.2,0.1c0.1-0.1,0.1,0,0.3,0c0.1,0.1,0.3,0.1,0.5,0.1
		c0,0,0.1,0,0.1,0c0,0,0.1,0,0.1-0.1c0-0.2,0-0.3,0.1-0.3c0.2-0.1,0.3-0.4,0.2-0.6c0,0,0.1-0.2,0.2-0.2c0.1,0,0.4-0.3,0.5-0.3
		l0.3-0.3c0,0.1,0,0.1,0,0.1c0,0,0,0.1,0,0.1c0,0,0,0,0,0c0,0,0,0,0,0c0.1-0.1,0.3-0.3,0.3-0.3c0,0,0,0,0-0.1c0,0,0,0,0-0.1l0,0
		c-0.1,0-0.2-0.1-0.2-0.1c-0.1,0-0.1,0.1-0.1,0.1c-0.1-0.1-0.3-0.2-0.3-0.2c0-0.1-0.1-0.3-0.4-0.3c-0.1,0-0.1,0-0.2,0
		c-0.2,0-0.4,0-0.5,0c-0.1-0.1-0.2-0.1-0.3-0.1c-0.2,0-0.4,0.1-0.5,0.1c-0.3,0.2-0.5,0.3-0.5,0.5c0,0.1-0.3,0.4-0.3,0.4
		c-0.1,0-0.2,0.2-0.2,0.3l0,0c-0.1,0.1-0.1,0.5-0.1,0.5c0,0,0,0,0,0.1c0,0,0,0,0.1,0c0.1,0,0.1,0,0.2,0c0.2,0,0.2,0,0.2,0.1
		c0,0,0,0,0.1,0c0.1,0.1,0.3,0.1,0.4,0.1c0,0,0.1,0,0.1,0c0,0,0.1,0,0.1,0c0,0,0,0,0,0c0,0-0.1,0.1-0.1,0.2c0,0,0,0,0,0
		c0,0,0,0-0.1,0c0,0-0.9-0.1-1.3-0.2l-0.1-0.2c-0.1-0.1-0.1-0.1-0.1-0.1c0,0,0.1-0.1,0.4-0.1c0,0,0,0,0,0c0,0,0.2-0.2,0.1-0.5
		c0-0.2,0.1-0.4,0.1-0.7c0.1-0.3,0.2-0.7,0.2-1c0,0,0-0.1,0-0.1c0,0-0.4-0.2-0.7-0.3c-0.2-0.1-0.3-0.1-0.4-0.1
		c0.1-0.2,0.3-0.4,0.3-0.5c0-0.1,0.1-0.2,0.3-0.4C27.9,9,28,8.9,28,8.8c0.3-0.3,0.7-0.9,0.7-1c0.1-0.1,0.3-0.3,0.6-0.3
		c0.2,0,0.3-0.1,0.3-0.1c0.1-0.1,0-0.4,0-0.4l0,0c-0.1-0.2-0.1-0.3-0.6-0.5c0,0,0,0-0.1,0c0,0,0,0,0,0c0,0-0.2,0.1-0.3,0.1
		c-0.1,0-0.2,0-0.3,0.1c-0.1,0-0.1,0-0.2,0c-0.1,0-0.3,0-0.4,0.3l-0.5,0.1c0.1-0.1,0.3-0.3,0.4-0.4c0.1-0.1,0.1-0.2,0.1-0.3
		c0,0,0-0.1,0-0.1c0,0,0-0.1,0-0.1c0,0,0,0-0.1,0c-0.1,0-0.8,0.2-0.9,0.4c-0.2,0.1-0.3,0.2-0.5,0.5c-0.1,0.2-0.4,0.3-0.6,0.3
		c0,0-0.1,0-0.1,0c-0.2-0.1-0.3-0.4-0.3-0.4c0,0,0,0,0,0c0,0,0,0-0.1,0C25.1,7,25,7.1,24.9,7.1c0,0.1-0.1,0.1-0.1,0.1
		c0,0-0.1,0-0.2,0c-0.5,0-1.4,0.4-1.6,0.8c-0.1,0.3-0.5,0.8-0.7,0.8c0,0,0,0,0,0c-0.1-0.1-0.3-0.1-0.4-0.1c-0.2,0-0.5,0.1-0.6,0.1
		C21.2,8.8,21.1,8.9,21,9c0,0,0,0.1,0,0.1c0.3,0.2,0.5,0.2,0.6,0.3c0.2,0.1,0.3,0.1,0.3,0.2c0,0.3,0.2,0.4,0.3,0.4c0,0,0.1,0,0.1,0
		c0.1,0,0.2,0,0.2-0.1c-0.1,0.1-0.2,0.2-0.4,0.3c-0.4,0.3-0.6,0.5-0.7,0.7c0,0.2-0.1,0.7-0.3,0.7c-0.2,0.1-0.5,0.4-0.8,0.8
		c-0.1,0.1-0.1,0.1-0.1,0.2c0,0.1-0.1,0.1,0,0.1c0,0,0,0,0.1,0c0,0,0,0,0.1-0.1c0.1-0.1,0.3-0.2,0.5-0.3c0,0,0.1,0,0.1,0
		c0.1,0,0.1,0,0.2,0c0,0-0.1,0.1-0.2,0.1c-0.4,0.2-1,0.7-1.3,1c-0.1,0-0.1,0.1-0.2,0.1c-0.3,0.2-0.5,0.4-0.5,0.4c0,0,0,0,0,0.1
		c0,0,0,0,0.1,0.1c0.1,0,0.2,0,0.3,0c0,0-0.1,0.1-0.1,0.1c-0.3,0.2-2.5,2.1-2.5,2.4c0,0.3-0.2,1.1-0.4,1.4c-0.2,0.2-0.6,0.6-0.7,0.9
		c0,0,0-0.1,0-0.1c0-0.3,0-0.4-0.1-0.4c-0.1,0-0.1,0.1-0.2,0.3c-0.2,0.6-0.8,1.4-1.1,1.5c-0.2,0.1-0.5,0.4-0.9,0.8
		c-0.3,0.3-0.8,0.8-0.9,0.8c0,0-0.1,0-0.1,0.1c0,0-0.1,0.1-0.1,0.1c-0.2,0.2-0.4,0.4-0.5,0.6c-0.1,0.2-0.2,0.3-0.2,0.4
		c-0.1,0.1-0.1,0.2-0.2,0.4C11,23.9,10.9,24,10.9,24c0,0,0,0,0,0.1l0.1,0.2l-0.1,0.1c-0.3,0.5-0.7,1-0.7,1.2c0,0.1-0.1,0.2-0.2,0.4
		c-0.1,0.2-0.2,0.4-0.2,0.5c0,0.2,0.1,0.7,0.1,0.8c-0.1,0.4-0.2,0.9-0.3,1.2c-0.1,0.4-0.2,0.7-0.2,0.8c0,0.1-0.1,0.3-0.2,0.5
		C9.1,30.2,9,30.4,9,30.6c0,0.3-0.1,1-0.1,1.2L8.5,32c0,0,0,0,0,0.1L8.6,33c0,0.2-0.1,0.4-0.2,0.6c-0.2,0.7-0.3,1.1-0.3,1.2
		c0.1,0.2,0.1,0.4,0.1,0.4c-0.1,0.4-0.1,0.9,0.1,1.1c0,0,0.1,0.1,0.1,0.1c0.2,0,0.3-0.3,0.3-0.4c0,0,0-0.2-0.1-0.6
		c0-0.3,0-1.2,0.1-1.4C9,33.9,9,33.3,9,33.3l0.2-0.6c0,0,0,0,0,0c0-0.3,0-0.6,0-0.7c0-0.1,0.1-0.3,0.1-0.5c0-0.1,0-0.3,0.1-0.4
		c0-0.1,0.4-1,0.5-1.3c0.1,0.4,0,0.9-0.1,1.2c-0.2,0.3-0.4,1.2-0.3,1.5c0.1,0.2,0,0.8,0,1v0.6c-0.1,0.2-0.1,0.3,0,0.5
		c0,0.1-0.1,0.2-0.2,0.4c0,0,0,0,0,0.1c0,0,0,0.2,0,0.3c0,0,0,0.3,0,0.5c0,0.1,0,0.2,0,0.3c0,0.1,0,0.1,0.1,0.2l0,0
		c0,0.1,0.1,0.2,0,0.2c-0.1,0.1,0,0.4,0.1,1.2c0,0.2-0.4,1.5-0.5,1.7C9,39.6,9,39.8,9.1,40c0,0,0,0,0,0c0,0.1,0,0.3,0.1,0.4
		c0,0,0.1,0.1,0.1,0.3c0,0.1,0,0.1,0,0.2c0,0.2,0.1,0.4,0.2,0.5l0,0.1c0,0,0,0.1,0.1,0.1c0.1,0.2,0.2,0.4,0.3,0.6
		c0.1,0.1,0.2,0.3,0.3,0.5c0.1,0.1,0.1,0.2,0.2,0.3c0,0.1,0.1,0.1,0.1,0.2c0.1,0.2,0.2,0.3,0.3,0.4c0,0.1,0.1,0.2,0.2,0.3
		c0,0,0,0.1,0.1,0.1c0,0.1,0.1,0.2,0.3,0.3c0.1,0.1,0.2,0.2,0.2,0.3l0,0c0.1,0.1,0.1,0.1,0.3,0.1c0.1,0,0.2,0,0.4-0.1
		c0.1,0.1,0.4,0.4,0.6,0.6c0,0.1,0.2,0.5,0.3,0.7c0.1,0.2,0.3,0.5,0.4,0.7c0.1,0.1,0.1,0.2,0.2,0.2c0.1,0.2,0.2,0.3,0.4,0.4
		c0.2,0.1,0.6,0.5,0.7,0.7c0.1,0.1,0.1,0.1,0.2,0.1c0,0,0.1,0,0.1,0c0,0,0.1,0,0.1,0c0.1,0.3,0.5,1.5,0.7,1.9c0,0.1,0,0.5,0,0.6
		c0,0.2,0.1,0.3,0.2,0.4c0,0,0.1,0.1,0.1,0.1c0,0,0.1,0.1,0.1,0.1c0.1,0,0.1-0.1,0.1-0.2c0.1,0.1,0.2,0.3,0.2,0.3
		c0,0.2,0.2,0.5,0.4,0.8c0,0.1,0.1,0.1,0.1,0.2c0.1,0.2,0.4,0.3,0.6,0.4l0.1,0c0.1,0.1,0.2,0.1,0.3,0.2c0,0.1,0.1,0.2,0.1,0.2
		c0,0,0,0.1,0,0.1c0,0,0,0.1,0.1,0.1c0.1,0.1,0.1,0.1,0.2,0.3c0,0,0,0,0.1,0c0,0,0.2-0.1,0.3-0.1c0,0,0,0,0-0.1c0,0,0,0,0,0
		c0-0.1,0-0.2-0.1-0.4c0,0,0,0,0,0c0.1,0,0.2-0.1,0.3-0.1c0.1,0,0.1-0.1,0.2-0.1c0.1,0.1,0.4,0.3,0.5,0.5c0,0,0,0.1,0.1,0.1
		c0,0,0,0,0,0c-0.2,0.1,0,0.4,0.1,0.7c0.1,0.2,0.1,0.3,0.2,0.4c0.1,0.2,0.1,0.2,0.1,0.4c0,0.1,0,0.2-0.1,0.3c-0.1,0.4-0.2,0.9,0,1.1
		c0.1,0.1,0.2,0.2,0.3,0.2c0,0.1-0.1,0.1-0.1,0.1c-0.1,0.1-0.2,0.2-0.2,0.2c0,0,0,0-0.1,0c-0.1-0.1-0.2-0.1-0.3-0.1
		c-0.2,0-0.3,0.1-0.4,0.4c-0.1,0.4-0.4,0.4-0.5,0.4h0h0c-0.3,0-0.4,0.2-0.4,0.5c0,0.1,0,0.1-0.1,0.2c-0.1,0.1-0.2,0.2-0.1,0.3
		c0,0.3,0,0.7,0,0.7c0,0,0,0,0,0.1c0.3,0.3,0.3,0.4,0.3,0.5c0,0,0,0.1,0,0.1c0,0.2,0,0.2-0.2,0.2c-0.2,0-0.3,0.1-0.3,0.2
		c-0.1,0.1,0,0.2,0,0.3c0,0.1,0,0.2,0.1,0.3c0,0.2,0,0.3,0.2,0.5c0.1,0.1,0.2,0.2,0.3,0.3c0.3,0.3,0.7,0.7,0.8,0.9
		c0.4,0.6,0.4,0.6,0.5,0.9c0,0.2,0.1,0.3,0.2,0.4c0,0,0.1,0.1,0.1,0.2c0.1,0.1,0.1,0.2,0.2,0.2c0.1,0.2,0.2,0.3,0.2,0.5
		c0,0.3,0.2,0.5,0.4,0.7c0.2,0.2,0.4,0.5,0.4,0.7c0,0.1,0.2,0.3,0.5,0.7c0.1,0.1,0.2,0.1,0.3,0.2c0.1,0.1,0.3,0.2,0.5,0.3l0,0.1
		c0.3,0.3,0.3,0.4,0.6,0.4c0.1,0,0.3,0.2,0.5,0.4c0.2,0.3,0.4,0.4,0.7,0.5c0.2,0.1,0.5,0.3,0.6,0.5c0,0.1,0.1,0.1,0.2,0.2
		c0.1,0.1,0.2,0.2,0.2,0.3c0,0.1,0.1,0.2,0.1,0.2c0.1,0.1,0.2,0.2,0.2,0.5c0,0.1,0.1,0.3,0.1,0.4c0.1,0.2,0.1,0.3,0,0.5
		c-0.1,0.2-0.1,0.4,0,0.6c0,0.1,0,0.2,0.1,0.2l0,0.1c0.1,0.3,0.1,0.6,0,0.8c-0.1,0.2,0,0.8,0.2,1.2c0.2,0.4,0.4,1,0.5,1.2
		c-0.1,0.2-0.1,0.3-0.2,0.5c0,0.2-0.1,0.3-0.1,0.3c0,0,0,0,0,0.1c0,0,0,0,0,0c0.3,0.2,0.3,0.3,0.4,0.5c0,0.1,0.2,0.3,0.3,0.4
		c0,0,0.1,0.1,0.1,0.1c0,0.2,0.5,0.3,0.8,0.3c0.1,0.4,0.4,0.7,0.7,0.9c0,0,0,0,0.1,0c1.1,0.4,2.3,0.7,3.5,1c0,0,0,0,0,0
		c0-0.1,0-0.1,0-0.2c-0.2-0.2-0.4-0.5-0.4-0.5c0-0.1,0-0.1,0-0.1c0,0,0,0,0,0c0.1,0,0.2,0,0.3-0.1c0,0,0,0,0,0
		c0.1,0,0.2-0.1,0.3-0.1c0,0,0,0,0,0c0,0,0,0,0,0c0.1,0,0.2-0.1,0.2-0.1c0,0,0-0.1,0-0.1c-0.1-0.1-0.2-0.2-0.2-0.3c0,0,0-0.1,0-0.1
		c0.1,0,0.2,0,0.3,0c0.1,0,0.2,0,0.2,0c0,0,0.1,0,0.1,0c0,0,0,0,0.1,0c0.1,0,0.4,0.1,0.6,0.1c0.1,0,0.1,0,0.2,0c0,0,0.2,0,0.3,0
		c0.1,0,0.2,0.1,0.3,0.1c0,0,0.1,0,0.1,0c0.3-0.1,0.6-0.2,0.6-0.3c0-0.2-0.1-0.2-0.3-0.3l0,0c-0.2-0.1-0.4-0.3-0.4-0.4
		c0-0.1-0.1-0.1-0.2-0.2c0,0-0.1,0-0.1,0c0.2,0,0.2,0,0.2,0c0.1,0.1,0.4,0.2,0.5,0.2c0,0,0.3,0.1,0.5,0.1c0.1,0.1,0.4,0.2,0.6,0.2
		c0.1,0,0.2,0,0.3-0.1c0.2-0.1,0.7-0.4,0.8-0.4c0.2,0,0.4-0.2,0.4-0.3l0,0c0,0,0.1-0.1,0.2-0.1c0,0,0,0,0,0c0.1-0.2,0.2-0.2,0.2-0.2
		c0,0,0,0,0,0c0.1,0,0.1-0.1,0.2-0.1c0.1,0,0.2-0.1,0.3-0.2c0.1-0.1,0.3-0.2,0.5-0.3c0,0,0,0,0,0l0.4-0.3c0,0,0,0,0,0
		c0.1-0.2,0.1-0.3,0-0.3c0,0,0,0,0,0c-0.1-0.2-0.1-0.4,0-0.4c0-0.1,0.1-0.1,0.2-0.2c0.1,0,0.2-0.1,0.3-0.2l0,0
		c0.3-0.1,0.5-0.1,0.6-0.2c0.1-0.1,0.2-0.1,0.3-0.1c0,0,0.1,0,0.1,0c0.1,0,0.4-0.2,0.5-0.2c0.1,0,0.3-0.1,0.3-0.2
		C41.8,73.6,42,73.5,42.2,73.5z"/>
	<path fill="#ADBCD2" d="M22.7,46.2c0.2,0,0.3,0.1,0.5,0.1c0,0,0,0,0,0c0,0,0,0,0,0c0,0,0.1,0,0.1-0.1c0,0,0,0,0,0
		c0-0.1-0.1-0.3-0.6-0.6c-0.1-0.2-0.4-0.4-0.4-0.4c-0.1-0.1-0.7-0.8-0.9-0.9c-0.1,0-0.4-0.3-0.7-0.6c-0.3-0.3-0.6-0.5-0.7-0.6l0,0
		c-0.2-0.1-0.4-0.3-0.6-0.3c-0.1,0-0.1,0-0.2,0c-0.1,0.1-0.3,0-0.4,0c-0.1,0-0.1,0-0.1,0c-0.1,0-0.5,0.2-0.7,0.4c0,0,0,0,0,0.1
		c0,0,0,0,0.1,0.1c0,0,0.2,0,0.3,0c0.1,0,0.1,0,0.2,0c0.1-0.1,0.3,0,0.5,0.1c0.2,0.1,0.3,0.2,0.5,0.3c0.1,0,0.1,0.1,0.2,0.1
		c0.1,0,0.2,0.1,0.2,0.1c0.1,0,0.2,0.1,0.2,0.2c0,0.2,0.4,0.4,0.8,0.6c0.1,0,0.1,0.1,0.2,0.1c0.1,0.1,0.1,0.1,0.1,0.2
		c0,0.1,0,0.1,0,0.2c0.1,0.2,0.4,0.4,0.6,0.5c-0.1,0-0.2,0.1-0.4,0.2c0,0-0.1,0.1-0.1,0.2c0,0.1,0.1,0.1,0.2,0.1l0,0
		c0.2,0,0.4,0,0.6-0.1C22.2,46,22.5,46.1,22.7,46.2z"/>
	<path fill="#ADBCD2" d="M21.5,46.9c0,0,0,0-0.2-0.1c-0.1,0-0.2,0-0.3-0.1c0,0-0.2-0.1-0.3-0.1c-0.1,0-0.1,0-0.1,0.1
		c0,0.1,0,0.1,0.1,0.2c0.1,0.1,0.1,0.1,0.1,0.1c0,0,0,0,0.1,0l0,0c0.1,0.2,0.2,0.3,0.3,0.3c0,0,0.1,0,0.2,0c0.1,0,0.2,0,0.2,0
		c0,0,0,0,0,0c0,0,0,0,0,0c0,0,0.1,0,0.1,0c0,0,0-0.1,0-0.1c0,0,0-0.1-0.1-0.1C21.7,47.1,21.6,47,21.5,46.9z"/>
	<path fill="#ADBCD2" d="M79.7,49.9c-1.5,2.5-3.3,4.6-5.3,6.5c0,0.3,0,0.4,0,0.5c0,0,0,0.1,0,0.1c0,0.2,0.1,0.4,0,0.6
		c-0.1,0.3-0.2,0.4,0,0.9c0,0.2-0.1,0.5-0.2,0.6c-0.2,0.2-0.3,0.8-0.3,1.1c0,0.2-0.2,0.6-0.5,1c-0.3,0.4-0.5,1-0.5,1.3
		c0,0.1-0.1,0.2-0.1,0.3c-0.1,0.2-0.1,0.4,0,0.9c0,0.1-0.2,0.6-0.2,1c0,0.3-0.1,0.5-0.3,0.8c-0.1,0.1-0.2,0.3-0.2,0.4c0,0,0,0,0,0
		c0,0.1-0.1,0.3-0.2,0.5C75.7,61.6,78.4,56,79.7,49.9z"/>
	<path fill="#ADBCD2" d="M23.2,47.8c0.1,0.1,0.1,0.1,0.2,0.1c0,0,0.1,0,0.1,0c0.1,0,0.1,0,0.2,0.1l0,0c0,0,0,0,0.1,0l0,0
		c0,0,0.1,0,0.1,0c0.1,0,0.2,0,0.4,0.1c0,0.1,0.1,0.2,0.1,0.3c0.1,0.1,0.1,0.1,0.2,0.1c0,0,0.1,0,0.1,0c0,0,0.1,0,0.1-0.1
		c0,0,0.1,0,0.1,0c0.2-0.1,0.2-0.1,0.5,0c0,0,0.1,0,0.1,0c0,0,0.1-0.1,0.3-0.1c0.2,0,0.3,0,0.4,0.1c0.1,0,0.2,0,0.2,0
		c0-0.1,0-0.1,0-0.2c0-0.2-0.4-0.4-0.5-0.4c-0.1,0-0.1-0.1-0.1-0.2c0,0,0-0.1-0.1-0.1c-0.1-0.2-0.2-0.3-0.5-0.3
		c-0.2,0-0.4-0.1-0.5-0.2c-0.2-0.1-0.3-0.1-0.5-0.1c-0.1,0-0.2,0-0.3-0.1l0,0c-0.2-0.1-0.2-0.1-0.4,0l0,0c0,0-0.1,0.1,0,0.1l0,0
		c0,0.1,0.1,0.3,0.2,0.3c0,0,0.1,0.1,0.1,0.2c0,0.1,0,0.1,0.1,0.2c0,0,0,0,0,0c0,0-0.1,0-0.1,0c-0.2,0-0.3-0.1-0.4-0.1c0,0,0,0,0,0
		c0,0,0,0-0.1-0.1c0,0-0.1-0.1-0.2-0.1c-0.1,0-0.2,0-0.3,0.1c0,0,0,0,0,0.1C23,47.5,23.1,47.7,23.2,47.8z"/>
	<path fill="#ADBCD2" d="M27.7,48.5c-0.1-0.1-0.2-0.1-0.3-0.1c0,0-0.1,0-0.1,0c-0.1,0-0.1,0-0.2,0.1c0,0,0,0.1,0,0.1c0,0,0,0,0,0.1
		c0,0.1,0,0.3,0.3,0.2c0,0,0.1,0,0.1,0c0,0,0,0,0.1,0c0,0,0.1,0.1,0.1,0.1c0,0,0,0,0,0c0.1,0,0.4-0.2,0.4-0.2c0,0,0,0,0-0.1
		c0,0,0-0.1-0.1-0.1L27.7,48.5z"/>
	<path fill="#ADBCD2" d="M30.6,13.8C30.6,13.8,30.5,13.8,30.6,13.8c-0.2,0-0.3,0-0.3,0.1c0,0-0.1,0.1-0.3,0.1
		c-0.2,0-0.3,0.1-0.3,0.2c0,0,0,0.1,0.1,0.1c0.1,0,0.1,0.1,0.1,0.2c0,0.1,0.2,0.2,0.4,0.2h0c0.1,0,0.2-0.1,0.2-0.1
		c0-0.1,0-0.2,0-0.2c0-0.1,0.1-0.2,0.1-0.3C30.6,14,30.6,13.9,30.6,13.8z"/>
	<path fill="#ADBCD2" d="M30.9,9.8c-0.1,0-0.1,0-0.2,0.1C30.7,10,30.6,10,30.5,10c0,0,0,0-0.1,0c0,0-0.3,0-0.5,0.1
		c-0.1,0.1-0.3,0.1-0.4,0.1c0,0,0,0,0,0c-0.1-0.1-0.3,0-0.4,0.2c-0.1,0.2-0.4,0.4-0.4,0.4c0,0,0,0,0,0.1c0,0,0,0,0.1,0l0.2,0
		c0,0,0,0,0,0c0.1-0.1,0.3,0,0.3,0c0,0,0.1,0.1,0.3,0.1c0.1,0,0.2,0,0.2,0c0.2,0,0.3,0,0.4,0c0.1,0,0.1,0.1,0.2,0.1
		c0.1,0,0.1,0,0.2,0c0.1,0,0.2,0,0.2,0c0,0,0,0,0,0c0,0,0,0,0.1,0c0,0,0,0,0-0.1c0-0.2,0-0.2,0.1-0.3c0.1-0.1,0.2-0.5,0.2-0.5
		c0,0,0,0,0-0.1c0,0-0.1-0.1-0.1-0.1C31.1,9.9,31,9.8,30.9,9.8z"/>
	<path fill="#ADBCD2" d="M29.8,18.1c0,0.2,0.1,0.2,0.1,0.2c0,0,0.1,0,0.1,0c0.1-0.1,0.4-0.3,0.5-0.2c0.1,0.2,0.4,0.6,0.7,0.6
		c0.1,0,0.1,0,0.2-0.1c0.1-0.3-0.1-0.6-0.3-0.9c0,0,0,0,0,0c-0.1-0.1-0.1-0.2-0.1-0.3c0-0.1,0-0.1,0-0.1c0-0.1-0.1-0.4-0.1-0.4
		c0,0,0-0.1-0.1,0c-0.3,0-0.4,0-0.4,0.3c0,0.1-0.2,0.3-0.3,0.3c0,0,0,0,0,0c-0.1,0-0.3,0.1-0.6,0.4c0,0,0,0.1,0,0.1
		c0.1,0.1,0.1,0.1,0.3,0.1c0,0,0,0,0.1,0c0,0,0.1,0,0.1,0C29.9,17.9,29.8,17.9,29.8,18.1z"/>
	<path fill="#ADBCD2" d="M33.3,16.9c0.1,0,0.4,0,0.5,0c0,0,0.1,0,0.1,0l0.2-0.3c0,0,0-0.1,0-0.1L34,16.3c0,0-0.1,0-0.1,0
		c-0.1,0-0.3,0.1-0.4,0.2c0,0.1,0,0.1-0.1,0.1c-0.1,0-0.2,0.1-0.2,0.2C33.1,16.9,33.2,16.9,33.3,16.9C33.3,16.9,33.3,16.9,33.3,16.9
		z"/>
	<defs>
		<filter id="Adobe_OpacityMaskFilter" filterUnits="userSpaceOnUse" x="2.1" y="2.7" width="40.7" height="78.6">
			<feColorMatrix  type="matrix" values="1 0 0 0 0  0 1 0 0 0  0 0 1 0 0  0 0 0 1 0"/>
		</filter>
	</defs>
	<mask maskUnits="userSpaceOnUse" x="2.1" y="2.7" width="40.7" height="78.6" id="SVGID_1_">
		<g filter="url(#Adobe_OpacityMaskFilter)">
			<g>
				<defs>
					<rect id="SVGID_2_" x="-12" y="-29.9" width="77.7" height="128.2"/>
				</defs>
				<clipPath id="SVGID_3_">
					<use xlink:href="#SVGID_2_"  overflow="visible"/>
				</clipPath>
				<g transform="matrix(1 0 3.552714e-15 1 0 0)" clip-path="url(#SVGID_3_)">
					
						<image overflow="visible" width="256" height="1" xlink:href="68279ECD269D128E.jpg"  transform="matrix(0.3036 0 7.038451e-06 164.0786 -12.0368 -47.4962)">
					</image>
				</g>
			</g>
		</g>
	</mask>
	<path opacity="0.7" mask="url(#SVGID_1_)" fill-rule="evenodd" clip-rule="evenodd" fill="#FFFFFF" d="M2.1,42
		c0-25.6,22-40.5,40.7-39.3c-7.3,9.5-11.7,21-11.7,39.3c0,18.2,4.5,29.7,11.7,39.3C21,82,2.1,65,2.1,42"/>
	<path fill="#D6DDE8" d="M3.2,41.9c0-21.5,17.3-39,38.7-39.3c-0.2,0-0.3,0-0.5,0C19.8,2.6,2.1,20.3,2.1,41.9
		c0,21.7,17.6,39.3,39.3,39.3c0.1,0,0.3,0,0.4,0C20.5,80.9,3.2,63.4,3.2,41.9z"/>
</g>
</svg>
