<?xml version="1.0" encoding="utf-8"?>
<!-- Generator: Adobe Illustrator 17.1.0, SVG Export Plug-In . SVG Version: 6.00 Build 0)  -->
<!DOCTYPE svg PUBLIC "-//W3C//DTD SVG 1.1//EN" "http://www.w3.org/Graphics/SVG/1.1/DTD/svg11.dtd">
<svg version="1.1" id="Layer_1" xmlns="http://www.w3.org/2000/svg" xmlns:xlink="http://www.w3.org/1999/xlink" x="0px" y="0px"
	 viewBox="0 0 38 30" enable-background="new 0 0 38 30" xml:space="preserve">
<g>
	<g>
		<g>
			<path fill="#276092" d="M16.4,26.6c0,1.3,1.1,2.4,2.4,2.4s2.4-1.1,2.4-2.4c0-1.3-1.1-2.4-2.4-2.4C17.5,24.2,16.4,25.3,16.4,26.6z
				 M19,26.6c0,0.1-0.1,0.2-0.2,0.2c-0.1,0-0.2-0.1-0.2-0.2c0-0.1,0.1-0.2,0.2-0.2C18.9,26.4,19,26.5,19,26.6z"/>
			<path fill="#276092" d="M29.3,15.9c0.3,0,0.7-0.1,0.9-0.4c0.5-0.5,0.4-1.3-0.1-1.8c-3.1-2.8-7.1-4.4-11.4-4.4
				c-4.2,0-8.2,1.5-11.3,4.3C7,14.1,7,14.9,7.5,15.4C7.9,16,8.7,16,9.3,15.5c2.6-2.4,6-3.7,9.6-3.7c3.6,0,7,1.3,9.6,3.7
				C28.7,15.8,29,15.9,29.3,15.9z"/>
			<path fill="#276092" d="M24.5,21.7c0.3,0,0.7-0.1,0.9-0.4c0.5-0.5,0.4-1.3-0.1-1.8c-1.8-1.6-4.1-2.6-6.6-2.6s-4.7,0.9-6.5,2.5
				c-0.5,0.5-0.6,1.3-0.1,1.8c0.5,0.5,1.3,0.6,1.8,0.1c1.3-1.2,3-1.8,4.8-1.8c1.8,0,3.5,0.7,4.8,1.9C23.9,21.6,24.2,21.7,24.5,21.7z
				"/>
			<path fill="#276092" d="M35.3,10.7c0.3,0,0.7-0.1,0.9-0.4c0.5-0.5,0.4-1.3-0.1-1.8c-4.8-4.4-10.9-6.8-17.4-6.8
				c-6.4,0-12.6,2.4-17.3,6.7C1,8.8,0.9,9.6,1.4,10.2s1.3,0.6,1.8,0.1c4.3-3.9,9.8-6,15.6-6c5.8,0,11.4,2.2,15.7,6.1
				C34.7,10.6,35,10.7,35.3,10.7z"/>
		</g>
	</g>
</g>
</svg>
