<?xml version="1.0" encoding="utf-8"?>
<!-- Generator: Adobe Illustrator 17.1.0, SVG Export Plug-In . SVG Version: 6.00 Build 0)  -->
<!DOCTYPE svg PUBLIC "-//W3C//DTD SVG 1.1//EN" "http://www.w3.org/Graphics/SVG/1.1/DTD/svg11.dtd">
<svg version="1.1" id="Layer_1" xmlns="http://www.w3.org/2000/svg" xmlns:xlink="http://www.w3.org/1999/xlink" x="0px" y="0px"
	 viewBox="0 0 40 40" enable-background="new 0 0 40 40" xml:space="preserve">
<g>
	<g>
		<g>
			<path fill="#55ACEE" d="M20,0.7c5.1,0,10,2,13.6,5.6c3.6,3.6,5.6,8.5,5.6,13.6s-2,10-5.6,13.6c-3.6,3.6-8.5,5.6-13.6,5.6
				s-10-2-13.6-5.6C2.7,30,0.7,25.1,0.7,20s2-10,5.6-13.6C10,2.7,14.9,0.7,20,0.7 M20,0C14.9,0,9.8,2,5.9,5.9
				C-2,13.7-2,26.3,5.9,34.1C9.8,38,14.9,40,20,40s10.2-2,14.1-5.9c7.8-7.8,7.8-20.5,0-28.3C30.2,2,25.1,0,20,0L20,0z"/>
		</g>
		<g>
			
				<rect x="19.6" y="6.5" transform="matrix(0.7071 -0.7071 0.7071 0.7071 -7.9139 19.8466)" fill="#55ACEE" width="0.7" height="25.9"/>
			
				<rect x="19.1" y="7" transform="matrix(-0.7071 -0.7071 0.7071 -0.7071 19.1058 47.9139)" fill="#55ACEE" width="0.7" height="25.9"/>
		</g>
	</g>
</g>
</svg>
